<?xml version="1.0" standalone="no"?>
<!DOCTYPE svg PUBLIC "-//W3C//DTD SVG 1.0//EN" "http://www.w3.org/TR/2001/REC-SVG-20010904/DTD/svg10.dtd">
<svg xmlns="http://www.w3.org/2000/svg" xmlns:xlink="http://www.w3.org/1999/xlink" id="body_1" width="500" height="210">

<defs>
					<clipPath  id="1">

						<path  clip-rule="evenodd"  d="M0 0L310 0L310 42L0 42z" />					</clipPath>
				<clipPath  id="2">

					<path  clip-rule="evenodd"  d="" />				</clipPath>
				<clipPath  id="3">

					<path  clip-rule="evenodd"  d="" />				</clipPath>
</defs>

<g transform="matrix(1.3333334 0 0 1.3333334 0 0)">
	<path  d="M0 0L375 0L375 157.5L0 157.5z" stroke="none"  fill="#FFFFFF" fill-rule="evenodd" />
	<g transform="matrix(0.75 0 0 0.75 0 0)">
		<g transform="matrix(1.6362863 0 0 1.6362863 -57.92454 -190.251)">
			<g transform="matrix(1 0 0 1 32 186)">
				<g clip-path="url(#1)" >
					<g>
						<g transform="matrix(1 0 0 1 1.478727 30.589334)">
							<g>
								<path  d="M15.75 0.359375C 12.914062 0.359375 10.457031 -0.125 8.375 -1.09375C 6.300781 -2.0625 4.707031 -3.46875 3.59375 -5.3125C 2.488281 -7.164062 1.9375 -9.429688 1.9375 -12.109375C 1.9375 -13.921875 2.273438 -15.617188 2.953125 -17.203125C 3.628906 -18.796875 4.609375 -20.203125 5.890625 -21.421875C 7.171875 -22.640625 8.695312 -23.59375 10.46875 -24.28125C 12.25 -24.96875 14.238281 -25.3125 16.4375 -25.3125C 17.320312 -25.3125 18.28125 -25.253906 19.3125 -25.140625C 20.351562 -25.023438 21.34375 -24.835938 22.28125 -24.578125C 23.226562 -24.328125 24.015625 -23.988281 24.640625 -23.5625L24.640625 -23.5625L24.78125 -18.84375L24.359375 -18.734375C 23.878906 -19.972656 23.171875 -21.023438 22.234375 -21.890625C 21.304688 -22.765625 20.265625 -23.441406 19.109375 -23.921875C 17.953125 -24.398438 16.75 -24.640625 15.5 -24.640625C 13.59375 -24.640625 11.90625 -24.21875 10.4375 -23.375C 8.96875 -22.539062 7.816406 -21.316406 6.984375 -19.703125C 6.148438 -18.097656 5.734375 -16.101562 5.734375 -13.71875C 5.734375 -12 5.984375 -10.335938 6.484375 -8.734375C 6.984375 -7.140625 7.703125 -5.710938 8.640625 -4.453125C 9.585938 -3.203125 10.75 -2.210938 12.125 -1.484375C 13.5 -0.753906 15.054688 -0.390625 16.796875 -0.390625C 18.796875 -0.390625 20.476562 -0.953125 21.84375 -2.078125C 23.207031 -3.203125 24.210938 -4.691406 24.859375 -6.546875L24.859375 -6.546875L25.3125 -6.484375L24.75 -1.359375C 23.789062 -0.929688 22.597656 -0.535156 21.171875 -0.171875C 19.753906 0.179688 17.945312 0.359375 15.75 0.359375z" stroke="none"  fill="#81A969" fill-rule="nonzero" fill-opacity="0.4" />
							</g>
						</g>
					</g>
					<g>
						<g transform="matrix(1 0 0 1 27.65729 30.589334)">
							<g>
								<path  d="M14.6875 0C 13.726562 0 13.25 -0.476562 13.25 -1.4375L13.25 -1.4375L13.25 -7.34375C 12.914062 -5.957031 12.414062 -4.675781 11.75 -3.5C 11.082031 -2.332031 10.257812 -1.394531 9.28125 -0.6875C 8.300781 0.0078125 7.1875 0.359375 5.9375 0.359375C 4.625 0.359375 3.484375 -0.046875 2.515625 -0.859375C 1.554688 -1.671875 1.078125 -2.828125 1.078125 -4.328125C 1.078125 -5.578125 1.453125 -6.585938 2.203125 -7.359375C 2.953125 -8.128906 3.945312 -8.773438 5.1875 -9.296875C 6.4375 -9.828125 7.800781 -10.296875 9.28125 -10.703125L9.28125 -10.703125L13.25 -11.859375C 13.226562 -13.617188 12.78125 -14.875 11.90625 -15.625C 11.03125 -16.382812 9.925781 -16.765625 8.59375 -16.765625C 7.59375 -16.765625 6.601562 -16.53125 5.625 -16.0625C 4.644531 -15.59375 3.703125 -14.8125 2.796875 -13.71875L2.796875 -13.71875L2.4375 -14.03125C 3.4375 -15.28125 4.613281 -16.28125 5.96875 -17.03125C 7.332031 -17.78125 8.828125 -18.15625 10.453125 -18.15625C 12.628906 -18.15625 14.234375 -17.585938 15.265625 -16.453125C 16.304688 -15.316406 16.828125 -13.648438 16.828125 -11.453125L16.828125 -11.453125L16.828125 -4.546875C 16.828125 -3.253906 16.914062 -2.300781 17.09375 -1.6875C 17.28125 -1.082031 17.671875 -0.6875 18.265625 -0.5L18.265625 -0.5L18.265625 0L14.6875 0zM4.40625 -5.59375C 4.40625 -4.414062 4.753906 -3.5625 5.453125 -3.03125C 6.160156 -2.507812 6.921875 -2.25 7.734375 -2.25C 8.617188 -2.25 9.398438 -2.519531 10.078125 -3.0625C 10.765625 -3.601562 11.335938 -4.296875 11.796875 -5.140625C 12.265625 -5.984375 12.625 -6.867188 12.875 -7.796875C 13.125 -8.734375 13.25 -9.609375 13.25 -10.421875L13.25 -10.421875L13.25 -11.359375L9.421875 -10.25C 8.992188 -10.125 8.5 -9.945312 7.9375 -9.71875C 7.375 -9.5 6.820312 -9.207031 6.28125 -8.84375C 5.75 -8.488281 5.300781 -8.039062 4.9375 -7.5C 4.582031 -6.96875 4.40625 -6.332031 4.40625 -5.59375z" stroke="none"  fill="#81A969" fill-rule="nonzero" fill-opacity="0.4" />
							</g>
						</g>
					</g>
					<g>
						<g transform="matrix(1 0 0 1 45.921364 30.589334)">
							<g>
								<path  d="M1 0L1 -0.5C 1.59375 -0.6875 1.976562 -1.082031 2.15625 -1.6875C 2.34375 -2.300781 2.4375 -3.253906 2.4375 -4.546875L2.4375 -4.546875L2.4375 -12.78125C 2.4375 -13.832031 2.3125 -14.523438 2.0625 -14.859375C 1.8125 -15.191406 1.457031 -15.457031 1 -15.65625L1 -15.65625L1 -16.15625L5.734375 -18.234375L6.09375 -17.9375L6.09375 -13.609375C 6.632812 -14.898438 7.503906 -15.953125 8.703125 -16.765625C 9.367188 -17.234375 10.050781 -17.582031 10.75 -17.8125C 11.457031 -18.039062 12.242188 -18.15625 13.109375 -18.15625C 13.722656 -18.15625 14.257812 -18.070312 14.71875 -17.90625C 15.175781 -17.738281 15.40625 -17.460938 15.40625 -17.078125C 15.40625 -16.816406 15.3125 -16.5 15.125 -16.125C 14.945312 -15.757812 14.675781 -15.4375 14.3125 -15.15625C 13.957031 -14.882812 13.507812 -14.75 12.96875 -14.75C 12.46875 -14.75 11.851562 -14.835938 11.125 -15.015625C 10.394531 -15.203125 9.457031 -15.472656 8.3125 -15.828125C 7.851562 -15.441406 7.378906 -14.878906 6.890625 -14.140625C 6.398438 -13.398438 6.132812 -12.578125 6.09375 -11.671875L6.09375 -11.671875L6.09375 -4.546875C 6.09375 -3.253906 6.179688 -2.300781 6.359375 -1.6875C 6.535156 -1.082031 6.921875 -0.6875 7.515625 -0.5L7.515625 -0.5L7.515625 0L1 0z" stroke="none"  fill="#81A969" fill-rule="nonzero" fill-opacity="0.4" />
							</g>
						</g>
					</g>
					<g>
						<g transform="matrix(1 0 0 1 61.356277 30.589334)">
							<g>
								<path  d="M10.671875 0.359375C 9.503906 0.359375 8.351562 0.1875 7.21875 -0.15625C 6.082031 -0.507812 5.050781 -1.046875 4.125 -1.765625C 3.207031 -2.492188 2.472656 -3.414062 1.921875 -4.53125C 1.378906 -5.644531 1.109375 -6.960938 1.109375 -8.484375C 1.109375 -9.941406 1.367188 -11.257812 1.890625 -12.4375C 2.421875 -13.625 3.140625 -14.640625 4.046875 -15.484375C 4.953125 -16.335938 5.976562 -16.992188 7.125 -17.453125C 8.269531 -17.921875 9.453125 -18.15625 10.671875 -18.15625C 11.796875 -18.15625 12.910156 -17.988281 14.015625 -17.65625C 15.128906 -17.320312 16.15625 -16.789062 17.09375 -16.0625C 18.039062 -15.332031 18.796875 -14.40625 19.359375 -13.28125C 19.921875 -12.164062 20.203125 -10.816406 20.203125 -9.234375C 20.203125 -7.710938 19.90625 -6.351562 19.3125 -5.15625C 18.726562 -3.957031 17.960938 -2.953125 17.015625 -2.140625C 16.078125 -1.335938 15.046875 -0.71875 13.921875 -0.28125C 12.804688 0.144531 11.722656 0.359375 10.671875 0.359375zM4.6875 -11.171875C 4.6875 -10.117188 4.84375 -8.972656 5.15625 -7.734375C 5.46875 -6.492188 5.925781 -5.316406 6.53125 -4.203125C 7.144531 -3.097656 7.90625 -2.191406 8.8125 -1.484375C 9.71875 -0.785156 10.753906 -0.4375 11.921875 -0.4375C 13.097656 -0.4375 14.023438 -0.734375 14.703125 -1.328125C 15.378906 -1.921875 15.859375 -2.679688 16.140625 -3.609375C 16.429688 -4.546875 16.578125 -5.515625 16.578125 -6.515625C 16.578125 -7.660156 16.390625 -8.882812 16.015625 -10.1875C 15.648438 -11.488281 15.128906 -12.710938 14.453125 -13.859375C 13.773438 -15.003906 12.957031 -15.914062 12 -16.59375C 11.039062 -17.28125 9.988281 -17.5625 8.84375 -17.4375C 7.820312 -17.34375 7.003906 -16.988281 6.390625 -16.375C 5.785156 -15.769531 5.347656 -15.007812 5.078125 -14.09375C 4.816406 -13.175781 4.6875 -12.203125 4.6875 -11.171875z" stroke="none"  fill="#81A969" fill-rule="nonzero" fill-opacity="0.4" />
							</g>
						</g>
					</g>
					<g>
						<g transform="matrix(1 0 0 1 82.30626 30.589334)">
							<g>
								<path  d="M1.078125 0L1.078125 -0.5C 1.671875 -0.6875 2.054688 -1.082031 2.234375 -1.6875C 2.410156 -2.300781 2.5 -3.253906 2.5 -4.546875L2.5 -4.546875L2.5 -23.53125C 2.5 -24.582031 2.375 -25.273438 2.125 -25.609375C 1.875 -25.941406 1.523438 -26.203125 1.078125 -26.390625L1.078125 -26.390625L1.078125 -26.890625L5.796875 -28.96875L6.15625 -28.6875L6.15625 -4.546875C 6.15625 -3.253906 6.242188 -2.300781 6.421875 -1.6875C 6.609375 -1.082031 7 -0.6875 7.59375 -0.5L7.59375 -0.5L7.59375 0L1.078125 0z" stroke="none"  fill="#81A969" fill-rule="nonzero" fill-opacity="0.4" />
							</g>
						</g>
					</g>
					<g>
						<g transform="matrix(1 0 0 1 90.39967 30.589334)">
							<g>
								<path  d="M1 0L1 -0.5C 1.59375 -0.6875 1.976562 -1.082031 2.15625 -1.6875C 2.34375 -2.300781 2.4375 -3.253906 2.4375 -4.546875L2.4375 -4.546875L2.4375 -12.78125C 2.4375 -13.832031 2.3125 -14.523438 2.0625 -14.859375C 1.8125 -15.191406 1.457031 -15.457031 1 -15.65625L1 -15.65625L1 -16.15625L5.734375 -18.234375L6.09375 -17.9375L6.09375 -4.546875C 6.09375 -3.253906 6.179688 -2.300781 6.359375 -1.6875C 6.535156 -1.082031 6.921875 -0.6875 7.515625 -0.5L7.515625 -0.5L7.515625 0L1 0zM1.609375 -21.875C 1.609375 -22.570312 1.847656 -23.160156 2.328125 -23.640625C 2.804688 -24.117188 3.378906 -24.359375 4.046875 -24.359375C 4.765625 -24.359375 5.347656 -24.117188 5.796875 -23.640625C 6.253906 -23.160156 6.484375 -22.570312 6.484375 -21.875C 6.484375 -21.207031 6.25 -20.632812 5.78125 -20.15625C 5.3125 -19.6875 4.734375 -19.453125 4.046875 -19.453125C 3.378906 -19.453125 2.804688 -19.6875 2.328125 -20.15625C 1.847656 -20.632812 1.609375 -21.207031 1.609375 -21.875z" stroke="none"  fill="#81A969" fill-rule="nonzero" fill-opacity="0.4" />
							</g>
						</g>
					</g>
					<g>
						<g transform="matrix(1 0 0 1 98.27821 30.589334)">
							<g>
								<path  d="M1 0L1 -0.5C 1.59375 -0.6875 1.976562 -1.082031 2.15625 -1.6875C 2.34375 -2.300781 2.4375 -3.253906 2.4375 -4.546875L2.4375 -4.546875L2.4375 -12.78125C 2.4375 -13.832031 2.3125 -14.523438 2.0625 -14.859375C 1.8125 -15.191406 1.457031 -15.457031 1 -15.65625L1 -15.65625L1 -16.15625L5.734375 -18.234375L6.09375 -17.9375L6.09375 -14.9375C 7.070312 -15.75 8.191406 -16.488281 9.453125 -17.15625C 10.722656 -17.820312 12.050781 -18.15625 13.4375 -18.15625C 15.082031 -18.15625 16.410156 -17.695312 17.421875 -16.78125C 18.429688 -15.863281 18.9375 -14.351562 18.9375 -12.25L18.9375 -12.25L18.9375 -4.546875C 18.9375 -3.253906 19.023438 -2.300781 19.203125 -1.6875C 19.390625 -1.082031 19.78125 -0.6875 20.375 -0.5L20.375 -0.5L20.375 0L13.859375 0L13.859375 -0.5C 14.453125 -0.6875 14.835938 -1.082031 15.015625 -1.6875C 15.203125 -2.300781 15.296875 -3.253906 15.296875 -4.546875L15.296875 -4.546875L15.296875 -11.609375C 15.296875 -13.222656 14.953125 -14.476562 14.265625 -15.375C 13.585938 -16.269531 12.582031 -16.71875 11.25 -16.71875C 10.40625 -16.71875 9.578125 -16.515625 8.765625 -16.109375C 7.960938 -15.703125 7.070312 -15.109375 6.09375 -14.328125L6.09375 -14.328125L6.09375 -4.546875C 6.09375 -3.253906 6.179688 -2.300781 6.359375 -1.6875C 6.535156 -1.082031 6.921875 -0.6875 7.515625 -0.5L7.515625 -0.5L7.515625 0L1 0z" stroke="none"  fill="#81A969" fill-rule="nonzero" fill-opacity="0.4" />
							</g>
						</g>
					</g>
					<g>
						<g transform="matrix(1 0 0 1 118.655205 30.589334)">
							<g>
								<path  d="M9.59375 0.359375C 8.59375 0.359375 7.597656 0.179688 6.609375 -0.171875C 5.617188 -0.535156 4.703125 -1.070312 3.859375 -1.78125C 3.023438 -2.5 2.359375 -3.394531 1.859375 -4.46875C 1.359375 -5.550781 1.109375 -6.816406 1.109375 -8.265625C 1.109375 -9.796875 1.375 -11.171875 1.90625 -12.390625C 2.445312 -13.609375 3.171875 -14.644531 4.078125 -15.5C 4.984375 -16.363281 5.992188 -17.019531 7.109375 -17.46875C 8.222656 -17.925781 9.363281 -18.15625 10.53125 -18.15625C 12.15625 -18.15625 13.515625 -17.832031 14.609375 -17.1875C 15.710938 -16.539062 16.539062 -15.726562 17.09375 -14.75C 17.65625 -13.769531 17.9375 -12.753906 17.9375 -11.703125L17.9375 -11.703125L4.375 -11.703125C 4.34375 -11.515625 4.320312 -11.320312 4.3125 -11.125C 4.300781 -10.9375 4.296875 -10.75 4.296875 -10.5625C 4.296875 -9.007812 4.597656 -7.625 5.203125 -6.40625C 5.816406 -5.1875 6.675781 -4.238281 7.78125 -3.5625C 8.894531 -2.882812 10.203125 -2.546875 11.703125 -2.546875C 13.046875 -2.546875 14.226562 -2.804688 15.25 -3.328125C 16.28125 -3.859375 17.164062 -4.539062 17.90625 -5.375L17.90625 -5.375L18.234375 -5.015625C 17.679688 -4.179688 17 -3.351562 16.1875 -2.53125C 15.375 -1.707031 14.414062 -1.019531 13.3125 -0.46875C 12.21875 0.0820312 10.976562 0.359375 9.59375 0.359375zM4.40625 -12.21875L14.328125 -12.21875C 14.179688 -13.195312 13.875 -14.082031 13.40625 -14.875C 12.945312 -15.675781 12.375 -16.316406 11.6875 -16.796875C 11.007812 -17.273438 10.253906 -17.515625 9.421875 -17.515625C 8.421875 -17.535156 7.570312 -17.296875 6.875 -16.796875C 6.1875 -16.296875 5.640625 -15.640625 5.234375 -14.828125C 4.828125 -14.015625 4.550781 -13.144531 4.40625 -12.21875z" stroke="none"  fill="#81A969" fill-rule="nonzero" fill-opacity="0.4" />
							</g>
						</g>
					</g>
					<g>
						<g transform="matrix(1 0 0 1 137.06253 30.589334)">
							<g>
							</g>
						</g>
					</g>
					<g>
						<g transform="matrix(1 0 0 1 143.50859 30.589334)">
							<g>
								<path  d="M1.5 0L1.5 -0.5C 2.101562 -0.6875 2.492188 -1.082031 2.671875 -1.6875C 2.847656 -2.300781 2.9375 -3.253906 2.9375 -4.546875L2.9375 -4.546875L2.9375 -18.375C 2.9375 -19.832031 2.847656 -20.976562 2.671875 -21.8125C 2.492188 -22.644531 2.222656 -23.265625 1.859375 -23.671875C 1.503906 -24.078125 1.050781 -24.375 0.5 -24.5625L0.5 -24.5625L0.5 -25.0625L5.875 -25.0625L14.71875 -10.390625L23.140625 -25.0625L28.21875 -25.0625L28.21875 -24.5625C 27.664062 -24.375 27.210938 -24.078125 26.859375 -23.671875C 26.503906 -23.265625 26.234375 -22.644531 26.046875 -21.8125C 25.867188 -20.976562 25.78125 -19.832031 25.78125 -18.375L25.78125 -18.375L25.78125 -4.546875C 25.78125 -3.253906 25.867188 -2.300781 26.046875 -1.6875C 26.234375 -1.082031 26.625 -0.6875 27.21875 -0.5L27.21875 -0.5L27.21875 0L20.5625 0L20.5625 -0.5C 21.15625 -0.6875 21.539062 -1.082031 21.71875 -1.6875C 21.894531 -2.300781 21.984375 -3.253906 21.984375 -4.546875L21.984375 -4.546875L21.984375 -21.875L13.390625 -6.796875L12.5625 -6.796875L3.578125 -21.5625L3.578125 -6.703125C 3.578125 -5.242188 3.671875 -4.09375 3.859375 -3.25C 4.054688 -2.414062 4.359375 -1.796875 4.765625 -1.390625C 5.171875 -0.984375 5.679688 -0.6875 6.296875 -0.5L6.296875 -0.5L6.296875 0L1.5 0z" stroke="none"  fill="#81A969" fill-rule="nonzero" fill-opacity="0.4" />
							</g>
						</g>
					</g>
					<g>
						<g transform="matrix(1 0 0 1 172.69537 30.589334)">
							<g>
								<path  d="M14.6875 0C 13.726562 0 13.25 -0.476562 13.25 -1.4375L13.25 -1.4375L13.25 -7.34375C 12.914062 -5.957031 12.414062 -4.675781 11.75 -3.5C 11.082031 -2.332031 10.257812 -1.394531 9.28125 -0.6875C 8.300781 0.0078125 7.1875 0.359375 5.9375 0.359375C 4.625 0.359375 3.484375 -0.046875 2.515625 -0.859375C 1.554688 -1.671875 1.078125 -2.828125 1.078125 -4.328125C 1.078125 -5.578125 1.453125 -6.585938 2.203125 -7.359375C 2.953125 -8.128906 3.945312 -8.773438 5.1875 -9.296875C 6.4375 -9.828125 7.800781 -10.296875 9.28125 -10.703125L9.28125 -10.703125L13.25 -11.859375C 13.226562 -13.617188 12.78125 -14.875 11.90625 -15.625C 11.03125 -16.382812 9.925781 -16.765625 8.59375 -16.765625C 7.59375 -16.765625 6.601562 -16.53125 5.625 -16.0625C 4.644531 -15.59375 3.703125 -14.8125 2.796875 -13.71875L2.796875 -13.71875L2.4375 -14.03125C 3.4375 -15.28125 4.613281 -16.28125 5.96875 -17.03125C 7.332031 -17.78125 8.828125 -18.15625 10.453125 -18.15625C 12.628906 -18.15625 14.234375 -17.585938 15.265625 -16.453125C 16.304688 -15.316406 16.828125 -13.648438 16.828125 -11.453125L16.828125 -11.453125L16.828125 -4.546875C 16.828125 -3.253906 16.914062 -2.300781 17.09375 -1.6875C 17.28125 -1.082031 17.671875 -0.6875 18.265625 -0.5L18.265625 -0.5L18.265625 0L14.6875 0zM4.40625 -5.59375C 4.40625 -4.414062 4.753906 -3.5625 5.453125 -3.03125C 6.160156 -2.507812 6.921875 -2.25 7.734375 -2.25C 8.617188 -2.25 9.398438 -2.519531 10.078125 -3.0625C 10.765625 -3.601562 11.335938 -4.296875 11.796875 -5.140625C 12.265625 -5.984375 12.625 -6.867188 12.875 -7.796875C 13.125 -8.734375 13.25 -9.609375 13.25 -10.421875L13.25 -10.421875L13.25 -11.359375L9.421875 -10.25C 8.992188 -10.125 8.5 -9.945312 7.9375 -9.71875C 7.375 -9.5 6.820312 -9.207031 6.28125 -8.84375C 5.75 -8.488281 5.300781 -8.039062 4.9375 -7.5C 4.582031 -6.96875 4.40625 -6.332031 4.40625 -5.59375z" stroke="none"  fill="#81A969" fill-rule="nonzero" fill-opacity="0.4" />
							</g>
						</g>
					</g>
					<g>
						<g transform="matrix(1 0 0 1 190.95946 30.589334)">
							<g>
								<path  d="M7.921875 0.28125C 6.597656 0.28125 5.363281 0.113281 4.21875 -0.21875C 3.070312 -0.550781 2.15625 -0.941406 1.46875 -1.390625L1.46875 -1.390625L1.109375 -6.09375L1.46875 -6.15625C 2.226562 -4.4375 3.234375 -3.035156 4.484375 -1.953125C 5.742188 -0.867188 7.175781 -0.3125 8.78125 -0.28125C 9.894531 -0.257812 10.78125 -0.566406 11.4375 -1.203125C 12.09375 -1.835938 12.421875 -2.554688 12.421875 -3.359375C 12.421875 -4.503906 11.984375 -5.363281 11.109375 -5.9375C 10.242188 -6.507812 9.035156 -7.035156 7.484375 -7.515625C 6.242188 -7.898438 5.160156 -8.300781 4.234375 -8.71875C 3.316406 -9.132812 2.613281 -9.671875 2.125 -10.328125C 1.632812 -10.984375 1.390625 -11.847656 1.390625 -12.921875C 1.390625 -13.835938 1.632812 -14.691406 2.125 -15.484375C 2.613281 -16.285156 3.367188 -16.929688 4.390625 -17.421875C 5.421875 -17.910156 6.75 -18.15625 8.375 -18.15625C 9.40625 -18.15625 10.421875 -18.070312 11.421875 -17.90625C 12.421875 -17.738281 13.222656 -17.523438 13.828125 -17.265625L13.828125 -17.265625L14 -13.328125L13.578125 -13.25C 12.972656 -14.519531 12.140625 -15.570312 11.078125 -16.40625C 10.015625 -17.238281 8.828125 -17.65625 7.515625 -17.65625C 6.398438 -17.65625 5.5 -17.390625 4.8125 -16.859375C 4.132812 -16.335938 3.796875 -15.695312 3.796875 -14.9375C 3.796875 -13.9375 4.226562 -13.164062 5.09375 -12.625C 5.96875 -12.082031 7.207031 -11.539062 8.8125 -11C 9.769531 -10.6875 10.707031 -10.335938 11.625 -9.953125C 12.539062 -9.578125 13.300781 -9.046875 13.90625 -8.359375C 14.519531 -7.679688 14.828125 -6.734375 14.828125 -5.515625C 14.828125 -4.609375 14.609375 -3.707031 14.171875 -2.8125C 13.742188 -1.914062 13.03125 -1.175781 12.03125 -0.59375C 11.03125 -0.0078125 9.660156 0.28125 7.921875 0.28125z" stroke="none"  fill="#81A969" fill-rule="nonzero" fill-opacity="0.4" />
							</g>
						</g>
					</g>
					<g>
						<g transform="matrix(1 0 0 1 206.28693 30.589334)">
							<g>
								<path  d="M7.921875 0.28125C 6.597656 0.28125 5.363281 0.113281 4.21875 -0.21875C 3.070312 -0.550781 2.15625 -0.941406 1.46875 -1.390625L1.46875 -1.390625L1.109375 -6.09375L1.46875 -6.15625C 2.226562 -4.4375 3.234375 -3.035156 4.484375 -1.953125C 5.742188 -0.867188 7.175781 -0.3125 8.78125 -0.28125C 9.894531 -0.257812 10.78125 -0.566406 11.4375 -1.203125C 12.09375 -1.835938 12.421875 -2.554688 12.421875 -3.359375C 12.421875 -4.503906 11.984375 -5.363281 11.109375 -5.9375C 10.242188 -6.507812 9.035156 -7.035156 7.484375 -7.515625C 6.242188 -7.898438 5.160156 -8.300781 4.234375 -8.71875C 3.316406 -9.132812 2.613281 -9.671875 2.125 -10.328125C 1.632812 -10.984375 1.390625 -11.847656 1.390625 -12.921875C 1.390625 -13.835938 1.632812 -14.691406 2.125 -15.484375C 2.613281 -16.285156 3.367188 -16.929688 4.390625 -17.421875C 5.421875 -17.910156 6.75 -18.15625 8.375 -18.15625C 9.40625 -18.15625 10.421875 -18.070312 11.421875 -17.90625C 12.421875 -17.738281 13.222656 -17.523438 13.828125 -17.265625L13.828125 -17.265625L14 -13.328125L13.578125 -13.25C 12.972656 -14.519531 12.140625 -15.570312 11.078125 -16.40625C 10.015625 -17.238281 8.828125 -17.65625 7.515625 -17.65625C 6.398438 -17.65625 5.5 -17.390625 4.8125 -16.859375C 4.132812 -16.335938 3.796875 -15.695312 3.796875 -14.9375C 3.796875 -13.9375 4.226562 -13.164062 5.09375 -12.625C 5.96875 -12.082031 7.207031 -11.539062 8.8125 -11C 9.769531 -10.6875 10.707031 -10.335938 11.625 -9.953125C 12.539062 -9.578125 13.300781 -9.046875 13.90625 -8.359375C 14.519531 -7.679688 14.828125 -6.734375 14.828125 -5.515625C 14.828125 -4.609375 14.609375 -3.707031 14.171875 -2.8125C 13.742188 -1.914062 13.03125 -1.175781 12.03125 -0.59375C 11.03125 -0.0078125 9.660156 0.28125 7.921875 0.28125z" stroke="none"  fill="#81A969" fill-rule="nonzero" fill-opacity="0.4" />
							</g>
						</g>
					</g>
					<g>
						<g transform="matrix(1 0 0 1 221.61441 30.589334)">
							<g>
								<path  d="M14.6875 0C 13.726562 0 13.25 -0.476562 13.25 -1.4375L13.25 -1.4375L13.25 -7.34375C 12.914062 -5.957031 12.414062 -4.675781 11.75 -3.5C 11.082031 -2.332031 10.257812 -1.394531 9.28125 -0.6875C 8.300781 0.0078125 7.1875 0.359375 5.9375 0.359375C 4.625 0.359375 3.484375 -0.046875 2.515625 -0.859375C 1.554688 -1.671875 1.078125 -2.828125 1.078125 -4.328125C 1.078125 -5.578125 1.453125 -6.585938 2.203125 -7.359375C 2.953125 -8.128906 3.945312 -8.773438 5.1875 -9.296875C 6.4375 -9.828125 7.800781 -10.296875 9.28125 -10.703125L9.28125 -10.703125L13.25 -11.859375C 13.226562 -13.617188 12.78125 -14.875 11.90625 -15.625C 11.03125 -16.382812 9.925781 -16.765625 8.59375 -16.765625C 7.59375 -16.765625 6.601562 -16.53125 5.625 -16.0625C 4.644531 -15.59375 3.703125 -14.8125 2.796875 -13.71875L2.796875 -13.71875L2.4375 -14.03125C 3.4375 -15.28125 4.613281 -16.28125 5.96875 -17.03125C 7.332031 -17.78125 8.828125 -18.15625 10.453125 -18.15625C 12.628906 -18.15625 14.234375 -17.585938 15.265625 -16.453125C 16.304688 -15.316406 16.828125 -13.648438 16.828125 -11.453125L16.828125 -11.453125L16.828125 -4.546875C 16.828125 -3.253906 16.914062 -2.300781 17.09375 -1.6875C 17.28125 -1.082031 17.671875 -0.6875 18.265625 -0.5L18.265625 -0.5L18.265625 0L14.6875 0zM4.40625 -5.59375C 4.40625 -4.414062 4.753906 -3.5625 5.453125 -3.03125C 6.160156 -2.507812 6.921875 -2.25 7.734375 -2.25C 8.617188 -2.25 9.398438 -2.519531 10.078125 -3.0625C 10.765625 -3.601562 11.335938 -4.296875 11.796875 -5.140625C 12.265625 -5.984375 12.625 -6.867188 12.875 -7.796875C 13.125 -8.734375 13.25 -9.609375 13.25 -10.421875L13.25 -10.421875L13.25 -11.359375L9.421875 -10.25C 8.992188 -10.125 8.5 -9.945312 7.9375 -9.71875C 7.375 -9.5 6.820312 -9.207031 6.28125 -8.84375C 5.75 -8.488281 5.300781 -8.039062 4.9375 -7.5C 4.582031 -6.96875 4.40625 -6.332031 4.40625 -5.59375z" stroke="none"  fill="#81A969" fill-rule="nonzero" fill-opacity="0.4" />
							</g>
						</g>
					</g>
					<g>
						<g transform="matrix(1 0 0 1 239.87848 30.589334)">
							<g>
								<path  d="M6.234375 9.921875C 5.679688 9.921875 5.082031 9.847656 4.4375 9.703125C 3.789062 9.554688 3.175781 9.320312 2.59375 9C 2.007812 8.675781 1.523438 8.234375 1.140625 7.671875C 0.765625 7.117188 0.578125 6.425781 0.578125 5.59375C 0.578125 4.613281 0.960938 3.660156 1.734375 2.734375C 2.515625 1.816406 3.597656 0.941406 4.984375 0.109375C 4.242188 -0.109375 3.65625 -0.4375 3.21875 -0.875C 2.789062 -1.320312 2.578125 -1.914062 2.578125 -2.65625C 2.578125 -3.320312 2.816406 -3.914062 3.296875 -4.4375C 3.773438 -4.96875 4.488281 -5.519531 5.4375 -6.09375C 4.507812 -6.539062 3.722656 -7.179688 3.078125 -8.015625C 2.429688 -8.859375 2.109375 -9.957031 2.109375 -11.3125C 2.109375 -12.582031 2.445312 -13.726562 3.125 -14.75C 3.8125 -15.78125 4.707031 -16.601562 5.8125 -17.21875C 6.925781 -17.84375 8.128906 -18.15625 9.421875 -18.15625C 10.347656 -18.15625 11.21875 -18.046875 12.03125 -17.828125C 12.5625 -18.640625 13.195312 -19.285156 13.9375 -19.765625C 14.507812 -20.171875 15.109375 -20.488281 15.734375 -20.71875C 16.367188 -20.945312 17.054688 -21.0625 17.796875 -21.0625C 18.347656 -21.0625 18.832031 -20.984375 19.25 -20.828125C 19.664062 -20.671875 19.875 -20.425781 19.875 -20.09375C 19.875 -19.875 19.789062 -19.59375 19.625 -19.25C 19.457031 -18.90625 19.207031 -18.59375 18.875 -18.3125C 18.539062 -18.039062 18.125 -17.90625 17.625 -17.90625C 17.1875 -17.90625 16.671875 -17.988281 16.078125 -18.15625C 15.484375 -18.320312 14.671875 -18.570312 13.640625 -18.90625C 13.304688 -18.644531 12.945312 -18.226562 12.5625 -17.65625C 13.71875 -17.269531 14.6875 -16.628906 15.46875 -15.734375C 16.257812 -14.835938 16.65625 -13.613281 16.65625 -12.0625C 16.65625 -11.0625 16.421875 -10.144531 15.953125 -9.3125C 15.484375 -8.476562 14.878906 -7.757812 14.140625 -7.15625C 13.398438 -6.5625 12.613281 -6.097656 11.78125 -5.765625C 10.945312 -5.429688 10.160156 -5.265625 9.421875 -5.265625C 8.867188 -5.265625 8.285156 -5.3125 7.671875 -5.40625C 7.066406 -5.5 6.488281 -5.65625 5.9375 -5.875C 5.632812 -5.6875 5.382812 -5.488281 5.1875 -5.28125C 5 -5.082031 4.90625 -4.828125 4.90625 -4.515625C 4.90625 -4.296875 4.992188 -4.070312 5.171875 -3.84375C 5.347656 -3.625 5.707031 -3.4375 6.25 -3.28125C 6.789062 -3.125 7.609375 -3.007812 8.703125 -2.9375L8.703125 -2.9375L13.5 -2.65625C 15.34375 -2.550781 16.71875 -2.265625 17.625 -1.796875C 18.53125 -1.335938 18.984375 -0.476562 18.984375 0.78125C 18.984375 1.757812 18.628906 2.78125 17.921875 3.84375C 17.222656 4.90625 16.273438 5.894531 15.078125 6.8125C 13.878906 7.738281 12.515625 8.488281 10.984375 9.0625C 9.460938 9.632812 7.878906 9.921875 6.234375 9.921875zM3.515625 3.828125C 3.515625 4.785156 3.757812 5.550781 4.25 6.125C 4.738281 6.695312 5.378906 7.113281 6.171875 7.375C 6.972656 7.632812 7.84375 7.765625 8.78125 7.765625C 10.445312 7.765625 11.914062 7.519531 13.1875 7.03125C 14.46875 6.539062 15.46875 5.914062 16.1875 5.15625C 16.90625 4.394531 17.265625 3.59375 17.265625 2.75C 17.265625 2.175781 17.019531 1.722656 16.53125 1.390625C 16.039062 1.054688 15.09375 0.851562 13.6875 0.78125L13.6875 0.78125L7.921875 0.5C 7.484375 0.476562 7.066406 0.441406 6.671875 0.390625C 6.285156 0.347656 5.925781 0.300781 5.59375 0.25C 4.78125 0.820312 4.226562 1.410156 3.9375 2.015625C 3.65625 2.628906 3.515625 3.234375 3.515625 3.828125zM5.4375 -13.28125C 5.4375 -12.539062 5.523438 -11.75 5.703125 -10.90625C 5.890625 -10.0625 6.175781 -9.253906 6.5625 -8.484375C 6.957031 -7.722656 7.453125 -7.097656 8.046875 -6.609375C 8.648438 -6.117188 9.359375 -5.875 10.171875 -5.875C 10.984375 -5.875 11.617188 -6.070312 12.078125 -6.46875C 12.546875 -6.863281 12.875 -7.375 13.0625 -8C 13.257812 -8.632812 13.359375 -9.3125 13.359375 -10.03125C 13.359375 -10.8125 13.242188 -11.660156 13.015625 -12.578125C 12.785156 -13.503906 12.453125 -14.359375 12.015625 -15.140625C 11.578125 -15.929688 11.039062 -16.5625 10.40625 -17.03125C 9.769531 -17.5 9.046875 -17.695312 8.234375 -17.625C 7.160156 -17.5 6.425781 -17.007812 6.03125 -16.15625C 5.632812 -15.3125 5.4375 -14.351562 5.4375 -13.28125z" stroke="none"  fill="#81A969" fill-rule="nonzero" fill-opacity="0.4" />
							</g>
						</g>
					</g>
					<g>
						<g transform="matrix(1 0 0 1 258.2858 30.589334)">
							<g>
								<path  d="M9.59375 0.359375C 8.59375 0.359375 7.597656 0.179688 6.609375 -0.171875C 5.617188 -0.535156 4.703125 -1.070312 3.859375 -1.78125C 3.023438 -2.5 2.359375 -3.394531 1.859375 -4.46875C 1.359375 -5.550781 1.109375 -6.816406 1.109375 -8.265625C 1.109375 -9.796875 1.375 -11.171875 1.90625 -12.390625C 2.445312 -13.609375 3.171875 -14.644531 4.078125 -15.5C 4.984375 -16.363281 5.992188 -17.019531 7.109375 -17.46875C 8.222656 -17.925781 9.363281 -18.15625 10.53125 -18.15625C 12.15625 -18.15625 13.515625 -17.832031 14.609375 -17.1875C 15.710938 -16.539062 16.539062 -15.726562 17.09375 -14.75C 17.65625 -13.769531 17.9375 -12.753906 17.9375 -11.703125L17.9375 -11.703125L4.375 -11.703125C 4.34375 -11.515625 4.320312 -11.320312 4.3125 -11.125C 4.300781 -10.9375 4.296875 -10.75 4.296875 -10.5625C 4.296875 -9.007812 4.597656 -7.625 5.203125 -6.40625C 5.816406 -5.1875 6.675781 -4.238281 7.78125 -3.5625C 8.894531 -2.882812 10.203125 -2.546875 11.703125 -2.546875C 13.046875 -2.546875 14.226562 -2.804688 15.25 -3.328125C 16.28125 -3.859375 17.164062 -4.539062 17.90625 -5.375L17.90625 -5.375L18.234375 -5.015625C 17.679688 -4.179688 17 -3.351562 16.1875 -2.53125C 15.375 -1.707031 14.414062 -1.019531 13.3125 -0.46875C 12.21875 0.0820312 10.976562 0.359375 9.59375 0.359375zM4.40625 -12.21875L14.328125 -12.21875C 14.179688 -13.195312 13.875 -14.082031 13.40625 -14.875C 12.945312 -15.675781 12.375 -16.316406 11.6875 -16.796875C 11.007812 -17.273438 10.253906 -17.515625 9.421875 -17.515625C 8.421875 -17.535156 7.570312 -17.296875 6.875 -16.796875C 6.1875 -16.296875 5.640625 -15.640625 5.234375 -14.828125C 4.828125 -14.015625 4.550781 -13.144531 4.40625 -12.21875z" stroke="none"  fill="#81A969" fill-rule="nonzero" fill-opacity="0.4" />
							</g>
						</g>
					</g>
					<g>
						<g transform="matrix(1 0 0 1 276.6931 30.589334)">
							<g>
								<path  d="M1 0L1 -0.5C 1.59375 -0.6875 1.976562 -1.082031 2.15625 -1.6875C 2.34375 -2.300781 2.4375 -3.253906 2.4375 -4.546875L2.4375 -4.546875L2.4375 -12.78125C 2.4375 -13.832031 2.3125 -14.523438 2.0625 -14.859375C 1.8125 -15.191406 1.457031 -15.457031 1 -15.65625L1 -15.65625L1 -16.15625L5.734375 -18.234375L6.09375 -17.9375L6.09375 -14.9375C 7.070312 -15.75 8.191406 -16.488281 9.453125 -17.15625C 10.722656 -17.820312 12.050781 -18.15625 13.4375 -18.15625C 14.695312 -18.15625 15.734375 -17.894531 16.546875 -17.375C 17.359375 -16.863281 17.929688 -16.035156 18.265625 -14.890625C 19.242188 -15.703125 20.367188 -16.445312 21.640625 -17.125C 22.921875 -17.8125 24.265625 -18.15625 25.671875 -18.15625C 27.328125 -18.15625 28.597656 -17.695312 29.484375 -16.78125C 30.378906 -15.863281 30.828125 -14.351562 30.828125 -12.25L30.828125 -12.25L30.828125 -4.546875C 30.828125 -3.253906 30.914062 -2.300781 31.09375 -1.6875C 31.28125 -1.082031 31.671875 -0.6875 32.265625 -0.5L32.265625 -0.5L32.265625 0L25.75 0L25.75 -0.5C 26.34375 -0.6875 26.726562 -1.082031 26.90625 -1.6875C 27.09375 -2.300781 27.1875 -3.253906 27.1875 -4.546875L27.1875 -4.546875L27.1875 -11.609375C 27.1875 -13.222656 26.90625 -14.476562 26.34375 -15.375C 25.78125 -16.269531 24.832031 -16.71875 23.5 -16.71875C 22.65625 -16.71875 21.828125 -16.519531 21.015625 -16.125C 20.203125 -15.738281 19.320312 -15.160156 18.375 -14.390625C 18.519531 -13.753906 18.59375 -13.039062 18.59375 -12.25L18.59375 -12.25L18.59375 -4.546875C 18.59375 -3.253906 18.679688 -2.300781 18.859375 -1.6875C 19.035156 -1.082031 19.421875 -0.6875 20.015625 -0.5L20.015625 -0.5L20.015625 0L13.5 0L13.5 -0.5C 14.09375 -0.6875 14.476562 -1.082031 14.65625 -1.6875C 14.84375 -2.300781 14.9375 -3.253906 14.9375 -4.546875L14.9375 -4.546875L14.9375 -11.609375C 14.9375 -13.222656 14.65625 -14.476562 14.09375 -15.375C 13.53125 -16.269531 12.582031 -16.71875 11.25 -16.71875C 10.40625 -16.71875 9.578125 -16.515625 8.765625 -16.109375C 7.960938 -15.703125 7.070312 -15.109375 6.09375 -14.328125L6.09375 -14.328125L6.09375 -4.546875C 6.09375 -3.253906 6.179688 -2.300781 6.359375 -1.6875C 6.535156 -1.082031 6.921875 -0.6875 7.515625 -0.5L7.515625 -0.5L7.515625 0L1 0z" stroke="none"  fill="#81A969" fill-rule="nonzero" fill-opacity="0.4" />
							</g>
						</g>
					</g>
					<g>
						<g transform="matrix(1 0 0 1 1.478727 30.589334)">
							<g>
								<path  d="M15.75 0.359375C 12.914062 0.359375 10.457031 -0.125 8.375 -1.09375C 6.300781 -2.0625 4.707031 -3.46875 3.59375 -5.3125C 2.488281 -7.164062 1.9375 -9.429688 1.9375 -12.109375C 1.9375 -13.921875 2.273438 -15.617188 2.953125 -17.203125C 3.628906 -18.796875 4.609375 -20.203125 5.890625 -21.421875C 7.171875 -22.640625 8.695312 -23.59375 10.46875 -24.28125C 12.25 -24.96875 14.238281 -25.3125 16.4375 -25.3125C 17.320312 -25.3125 18.28125 -25.253906 19.3125 -25.140625C 20.351562 -25.023438 21.34375 -24.835938 22.28125 -24.578125C 23.226562 -24.328125 24.015625 -23.988281 24.640625 -23.5625L24.640625 -23.5625L24.78125 -18.84375L24.359375 -18.734375C 23.878906 -19.972656 23.171875 -21.023438 22.234375 -21.890625C 21.304688 -22.765625 20.265625 -23.441406 19.109375 -23.921875C 17.953125 -24.398438 16.75 -24.640625 15.5 -24.640625C 13.59375 -24.640625 11.90625 -24.21875 10.4375 -23.375C 8.96875 -22.539062 7.816406 -21.316406 6.984375 -19.703125C 6.148438 -18.097656 5.734375 -16.101562 5.734375 -13.71875C 5.734375 -12 5.984375 -10.335938 6.484375 -8.734375C 6.984375 -7.140625 7.703125 -5.710938 8.640625 -4.453125C 9.585938 -3.203125 10.75 -2.210938 12.125 -1.484375C 13.5 -0.753906 15.054688 -0.390625 16.796875 -0.390625C 18.796875 -0.390625 20.476562 -0.953125 21.84375 -2.078125C 23.207031 -3.203125 24.210938 -4.691406 24.859375 -6.546875L24.859375 -6.546875L25.3125 -6.484375L24.75 -1.359375C 23.789062 -0.929688 22.597656 -0.535156 21.171875 -0.171875C 19.753906 0.179688 17.945312 0.359375 15.75 0.359375z" stroke="none"  fill="#FFFFFF" fill-rule="nonzero" />
							</g>
						</g>
					</g>
					<g>
						<g transform="matrix(1 0 0 1 27.65729 30.589334)">
							<g>
								<path  d="M14.6875 0C 13.726562 0 13.25 -0.476562 13.25 -1.4375L13.25 -1.4375L13.25 -7.34375C 12.914062 -5.957031 12.414062 -4.675781 11.75 -3.5C 11.082031 -2.332031 10.257812 -1.394531 9.28125 -0.6875C 8.300781 0.0078125 7.1875 0.359375 5.9375 0.359375C 4.625 0.359375 3.484375 -0.046875 2.515625 -0.859375C 1.554688 -1.671875 1.078125 -2.828125 1.078125 -4.328125C 1.078125 -5.578125 1.453125 -6.585938 2.203125 -7.359375C 2.953125 -8.128906 3.945312 -8.773438 5.1875 -9.296875C 6.4375 -9.828125 7.800781 -10.296875 9.28125 -10.703125L9.28125 -10.703125L13.25 -11.859375C 13.226562 -13.617188 12.78125 -14.875 11.90625 -15.625C 11.03125 -16.382812 9.925781 -16.765625 8.59375 -16.765625C 7.59375 -16.765625 6.601562 -16.53125 5.625 -16.0625C 4.644531 -15.59375 3.703125 -14.8125 2.796875 -13.71875L2.796875 -13.71875L2.4375 -14.03125C 3.4375 -15.28125 4.613281 -16.28125 5.96875 -17.03125C 7.332031 -17.78125 8.828125 -18.15625 10.453125 -18.15625C 12.628906 -18.15625 14.234375 -17.585938 15.265625 -16.453125C 16.304688 -15.316406 16.828125 -13.648438 16.828125 -11.453125L16.828125 -11.453125L16.828125 -4.546875C 16.828125 -3.253906 16.914062 -2.300781 17.09375 -1.6875C 17.28125 -1.082031 17.671875 -0.6875 18.265625 -0.5L18.265625 -0.5L18.265625 0L14.6875 0zM4.40625 -5.59375C 4.40625 -4.414062 4.753906 -3.5625 5.453125 -3.03125C 6.160156 -2.507812 6.921875 -2.25 7.734375 -2.25C 8.617188 -2.25 9.398438 -2.519531 10.078125 -3.0625C 10.765625 -3.601562 11.335938 -4.296875 11.796875 -5.140625C 12.265625 -5.984375 12.625 -6.867188 12.875 -7.796875C 13.125 -8.734375 13.25 -9.609375 13.25 -10.421875L13.25 -10.421875L13.25 -11.359375L9.421875 -10.25C 8.992188 -10.125 8.5 -9.945312 7.9375 -9.71875C 7.375 -9.5 6.820312 -9.207031 6.28125 -8.84375C 5.75 -8.488281 5.300781 -8.039062 4.9375 -7.5C 4.582031 -6.96875 4.40625 -6.332031 4.40625 -5.59375z" stroke="none"  fill="#FFFFFF" fill-rule="nonzero" />
							</g>
						</g>
					</g>
					<g>
						<g transform="matrix(1 0 0 1 45.921364 30.589334)">
							<g>
								<path  d="M1 0L1 -0.5C 1.59375 -0.6875 1.976562 -1.082031 2.15625 -1.6875C 2.34375 -2.300781 2.4375 -3.253906 2.4375 -4.546875L2.4375 -4.546875L2.4375 -12.78125C 2.4375 -13.832031 2.3125 -14.523438 2.0625 -14.859375C 1.8125 -15.191406 1.457031 -15.457031 1 -15.65625L1 -15.65625L1 -16.15625L5.734375 -18.234375L6.09375 -17.9375L6.09375 -13.609375C 6.632812 -14.898438 7.503906 -15.953125 8.703125 -16.765625C 9.367188 -17.234375 10.050781 -17.582031 10.75 -17.8125C 11.457031 -18.039062 12.242188 -18.15625 13.109375 -18.15625C 13.722656 -18.15625 14.257812 -18.070312 14.71875 -17.90625C 15.175781 -17.738281 15.40625 -17.460938 15.40625 -17.078125C 15.40625 -16.816406 15.3125 -16.5 15.125 -16.125C 14.945312 -15.757812 14.675781 -15.4375 14.3125 -15.15625C 13.957031 -14.882812 13.507812 -14.75 12.96875 -14.75C 12.46875 -14.75 11.851562 -14.835938 11.125 -15.015625C 10.394531 -15.203125 9.457031 -15.472656 8.3125 -15.828125C 7.851562 -15.441406 7.378906 -14.878906 6.890625 -14.140625C 6.398438 -13.398438 6.132812 -12.578125 6.09375 -11.671875L6.09375 -11.671875L6.09375 -4.546875C 6.09375 -3.253906 6.179688 -2.300781 6.359375 -1.6875C 6.535156 -1.082031 6.921875 -0.6875 7.515625 -0.5L7.515625 -0.5L7.515625 0L1 0z" stroke="none"  fill="#FFFFFF" fill-rule="nonzero" />
							</g>
						</g>
					</g>
					<g>
						<g transform="matrix(1 0 0 1 61.356277 30.589334)">
							<g>
								<path  d="M10.671875 0.359375C 9.503906 0.359375 8.351562 0.1875 7.21875 -0.15625C 6.082031 -0.507812 5.050781 -1.046875 4.125 -1.765625C 3.207031 -2.492188 2.472656 -3.414062 1.921875 -4.53125C 1.378906 -5.644531 1.109375 -6.960938 1.109375 -8.484375C 1.109375 -9.941406 1.367188 -11.257812 1.890625 -12.4375C 2.421875 -13.625 3.140625 -14.640625 4.046875 -15.484375C 4.953125 -16.335938 5.976562 -16.992188 7.125 -17.453125C 8.269531 -17.921875 9.453125 -18.15625 10.671875 -18.15625C 11.796875 -18.15625 12.910156 -17.988281 14.015625 -17.65625C 15.128906 -17.320312 16.15625 -16.789062 17.09375 -16.0625C 18.039062 -15.332031 18.796875 -14.40625 19.359375 -13.28125C 19.921875 -12.164062 20.203125 -10.816406 20.203125 -9.234375C 20.203125 -7.710938 19.90625 -6.351562 19.3125 -5.15625C 18.726562 -3.957031 17.960938 -2.953125 17.015625 -2.140625C 16.078125 -1.335938 15.046875 -0.71875 13.921875 -0.28125C 12.804688 0.144531 11.722656 0.359375 10.671875 0.359375zM4.6875 -11.171875C 4.6875 -10.117188 4.84375 -8.972656 5.15625 -7.734375C 5.46875 -6.492188 5.925781 -5.316406 6.53125 -4.203125C 7.144531 -3.097656 7.90625 -2.191406 8.8125 -1.484375C 9.71875 -0.785156 10.753906 -0.4375 11.921875 -0.4375C 13.097656 -0.4375 14.023438 -0.734375 14.703125 -1.328125C 15.378906 -1.921875 15.859375 -2.679688 16.140625 -3.609375C 16.429688 -4.546875 16.578125 -5.515625 16.578125 -6.515625C 16.578125 -7.660156 16.390625 -8.882812 16.015625 -10.1875C 15.648438 -11.488281 15.128906 -12.710938 14.453125 -13.859375C 13.773438 -15.003906 12.957031 -15.914062 12 -16.59375C 11.039062 -17.28125 9.988281 -17.5625 8.84375 -17.4375C 7.820312 -17.34375 7.003906 -16.988281 6.390625 -16.375C 5.785156 -15.769531 5.347656 -15.007812 5.078125 -14.09375C 4.816406 -13.175781 4.6875 -12.203125 4.6875 -11.171875z" stroke="none"  fill="#FFFFFF" fill-rule="nonzero" />
							</g>
						</g>
					</g>
					<g>
						<g transform="matrix(1 0 0 1 82.30626 30.589334)">
							<g>
								<path  d="M1.078125 0L1.078125 -0.5C 1.671875 -0.6875 2.054688 -1.082031 2.234375 -1.6875C 2.410156 -2.300781 2.5 -3.253906 2.5 -4.546875L2.5 -4.546875L2.5 -23.53125C 2.5 -24.582031 2.375 -25.273438 2.125 -25.609375C 1.875 -25.941406 1.523438 -26.203125 1.078125 -26.390625L1.078125 -26.390625L1.078125 -26.890625L5.796875 -28.96875L6.15625 -28.6875L6.15625 -4.546875C 6.15625 -3.253906 6.242188 -2.300781 6.421875 -1.6875C 6.609375 -1.082031 7 -0.6875 7.59375 -0.5L7.59375 -0.5L7.59375 0L1.078125 0z" stroke="none"  fill="#FFFFFF" fill-rule="nonzero" />
							</g>
						</g>
					</g>
					<g>
						<g transform="matrix(1 0 0 1 90.39967 30.589334)">
							<g>
								<path  d="M1 0L1 -0.5C 1.59375 -0.6875 1.976562 -1.082031 2.15625 -1.6875C 2.34375 -2.300781 2.4375 -3.253906 2.4375 -4.546875L2.4375 -4.546875L2.4375 -12.78125C 2.4375 -13.832031 2.3125 -14.523438 2.0625 -14.859375C 1.8125 -15.191406 1.457031 -15.457031 1 -15.65625L1 -15.65625L1 -16.15625L5.734375 -18.234375L6.09375 -17.9375L6.09375 -4.546875C 6.09375 -3.253906 6.179688 -2.300781 6.359375 -1.6875C 6.535156 -1.082031 6.921875 -0.6875 7.515625 -0.5L7.515625 -0.5L7.515625 0L1 0zM1.609375 -21.875C 1.609375 -22.570312 1.847656 -23.160156 2.328125 -23.640625C 2.804688 -24.117188 3.378906 -24.359375 4.046875 -24.359375C 4.765625 -24.359375 5.347656 -24.117188 5.796875 -23.640625C 6.253906 -23.160156 6.484375 -22.570312 6.484375 -21.875C 6.484375 -21.207031 6.25 -20.632812 5.78125 -20.15625C 5.3125 -19.6875 4.734375 -19.453125 4.046875 -19.453125C 3.378906 -19.453125 2.804688 -19.6875 2.328125 -20.15625C 1.847656 -20.632812 1.609375 -21.207031 1.609375 -21.875z" stroke="none"  fill="#FFFFFF" fill-rule="nonzero" />
							</g>
						</g>
					</g>
					<g>
						<g transform="matrix(1 0 0 1 98.27821 30.589334)">
							<g>
								<path  d="M1 0L1 -0.5C 1.59375 -0.6875 1.976562 -1.082031 2.15625 -1.6875C 2.34375 -2.300781 2.4375 -3.253906 2.4375 -4.546875L2.4375 -4.546875L2.4375 -12.78125C 2.4375 -13.832031 2.3125 -14.523438 2.0625 -14.859375C 1.8125 -15.191406 1.457031 -15.457031 1 -15.65625L1 -15.65625L1 -16.15625L5.734375 -18.234375L6.09375 -17.9375L6.09375 -14.9375C 7.070312 -15.75 8.191406 -16.488281 9.453125 -17.15625C 10.722656 -17.820312 12.050781 -18.15625 13.4375 -18.15625C 15.082031 -18.15625 16.410156 -17.695312 17.421875 -16.78125C 18.429688 -15.863281 18.9375 -14.351562 18.9375 -12.25L18.9375 -12.25L18.9375 -4.546875C 18.9375 -3.253906 19.023438 -2.300781 19.203125 -1.6875C 19.390625 -1.082031 19.78125 -0.6875 20.375 -0.5L20.375 -0.5L20.375 0L13.859375 0L13.859375 -0.5C 14.453125 -0.6875 14.835938 -1.082031 15.015625 -1.6875C 15.203125 -2.300781 15.296875 -3.253906 15.296875 -4.546875L15.296875 -4.546875L15.296875 -11.609375C 15.296875 -13.222656 14.953125 -14.476562 14.265625 -15.375C 13.585938 -16.269531 12.582031 -16.71875 11.25 -16.71875C 10.40625 -16.71875 9.578125 -16.515625 8.765625 -16.109375C 7.960938 -15.703125 7.070312 -15.109375 6.09375 -14.328125L6.09375 -14.328125L6.09375 -4.546875C 6.09375 -3.253906 6.179688 -2.300781 6.359375 -1.6875C 6.535156 -1.082031 6.921875 -0.6875 7.515625 -0.5L7.515625 -0.5L7.515625 0L1 0z" stroke="none"  fill="#FFFFFF" fill-rule="nonzero" />
							</g>
						</g>
					</g>
					<g>
						<g transform="matrix(1 0 0 1 118.655205 30.589334)">
							<g>
								<path  d="M9.59375 0.359375C 8.59375 0.359375 7.597656 0.179688 6.609375 -0.171875C 5.617188 -0.535156 4.703125 -1.070312 3.859375 -1.78125C 3.023438 -2.5 2.359375 -3.394531 1.859375 -4.46875C 1.359375 -5.550781 1.109375 -6.816406 1.109375 -8.265625C 1.109375 -9.796875 1.375 -11.171875 1.90625 -12.390625C 2.445312 -13.609375 3.171875 -14.644531 4.078125 -15.5C 4.984375 -16.363281 5.992188 -17.019531 7.109375 -17.46875C 8.222656 -17.925781 9.363281 -18.15625 10.53125 -18.15625C 12.15625 -18.15625 13.515625 -17.832031 14.609375 -17.1875C 15.710938 -16.539062 16.539062 -15.726562 17.09375 -14.75C 17.65625 -13.769531 17.9375 -12.753906 17.9375 -11.703125L17.9375 -11.703125L4.375 -11.703125C 4.34375 -11.515625 4.320312 -11.320312 4.3125 -11.125C 4.300781 -10.9375 4.296875 -10.75 4.296875 -10.5625C 4.296875 -9.007812 4.597656 -7.625 5.203125 -6.40625C 5.816406 -5.1875 6.675781 -4.238281 7.78125 -3.5625C 8.894531 -2.882812 10.203125 -2.546875 11.703125 -2.546875C 13.046875 -2.546875 14.226562 -2.804688 15.25 -3.328125C 16.28125 -3.859375 17.164062 -4.539062 17.90625 -5.375L17.90625 -5.375L18.234375 -5.015625C 17.679688 -4.179688 17 -3.351562 16.1875 -2.53125C 15.375 -1.707031 14.414062 -1.019531 13.3125 -0.46875C 12.21875 0.0820312 10.976562 0.359375 9.59375 0.359375zM4.40625 -12.21875L14.328125 -12.21875C 14.179688 -13.195312 13.875 -14.082031 13.40625 -14.875C 12.945312 -15.675781 12.375 -16.316406 11.6875 -16.796875C 11.007812 -17.273438 10.253906 -17.515625 9.421875 -17.515625C 8.421875 -17.535156 7.570312 -17.296875 6.875 -16.796875C 6.1875 -16.296875 5.640625 -15.640625 5.234375 -14.828125C 4.828125 -14.015625 4.550781 -13.144531 4.40625 -12.21875z" stroke="none"  fill="#FFFFFF" fill-rule="nonzero" />
							</g>
						</g>
					</g>
					<g>
						<g transform="matrix(1 0 0 1 137.06253 30.589334)">
							<g>
							</g>
						</g>
					</g>
					<g>
						<g transform="matrix(1 0 0 1 143.50859 30.589334)">
							<g>
								<path  d="M1.5 0L1.5 -0.5C 2.101562 -0.6875 2.492188 -1.082031 2.671875 -1.6875C 2.847656 -2.300781 2.9375 -3.253906 2.9375 -4.546875L2.9375 -4.546875L2.9375 -18.375C 2.9375 -19.832031 2.847656 -20.976562 2.671875 -21.8125C 2.492188 -22.644531 2.222656 -23.265625 1.859375 -23.671875C 1.503906 -24.078125 1.050781 -24.375 0.5 -24.5625L0.5 -24.5625L0.5 -25.0625L5.875 -25.0625L14.71875 -10.390625L23.140625 -25.0625L28.21875 -25.0625L28.21875 -24.5625C 27.664062 -24.375 27.210938 -24.078125 26.859375 -23.671875C 26.503906 -23.265625 26.234375 -22.644531 26.046875 -21.8125C 25.867188 -20.976562 25.78125 -19.832031 25.78125 -18.375L25.78125 -18.375L25.78125 -4.546875C 25.78125 -3.253906 25.867188 -2.300781 26.046875 -1.6875C 26.234375 -1.082031 26.625 -0.6875 27.21875 -0.5L27.21875 -0.5L27.21875 0L20.5625 0L20.5625 -0.5C 21.15625 -0.6875 21.539062 -1.082031 21.71875 -1.6875C 21.894531 -2.300781 21.984375 -3.253906 21.984375 -4.546875L21.984375 -4.546875L21.984375 -21.875L13.390625 -6.796875L12.5625 -6.796875L3.578125 -21.5625L3.578125 -6.703125C 3.578125 -5.242188 3.671875 -4.09375 3.859375 -3.25C 4.054688 -2.414062 4.359375 -1.796875 4.765625 -1.390625C 5.171875 -0.984375 5.679688 -0.6875 6.296875 -0.5L6.296875 -0.5L6.296875 0L1.5 0z" stroke="none"  fill="#FFFFFF" fill-rule="nonzero" />
							</g>
						</g>
					</g>
					<g>
						<g transform="matrix(1 0 0 1 172.69537 30.589334)">
							<g>
								<path  d="M14.6875 0C 13.726562 0 13.25 -0.476562 13.25 -1.4375L13.25 -1.4375L13.25 -7.34375C 12.914062 -5.957031 12.414062 -4.675781 11.75 -3.5C 11.082031 -2.332031 10.257812 -1.394531 9.28125 -0.6875C 8.300781 0.0078125 7.1875 0.359375 5.9375 0.359375C 4.625 0.359375 3.484375 -0.046875 2.515625 -0.859375C 1.554688 -1.671875 1.078125 -2.828125 1.078125 -4.328125C 1.078125 -5.578125 1.453125 -6.585938 2.203125 -7.359375C 2.953125 -8.128906 3.945312 -8.773438 5.1875 -9.296875C 6.4375 -9.828125 7.800781 -10.296875 9.28125 -10.703125L9.28125 -10.703125L13.25 -11.859375C 13.226562 -13.617188 12.78125 -14.875 11.90625 -15.625C 11.03125 -16.382812 9.925781 -16.765625 8.59375 -16.765625C 7.59375 -16.765625 6.601562 -16.53125 5.625 -16.0625C 4.644531 -15.59375 3.703125 -14.8125 2.796875 -13.71875L2.796875 -13.71875L2.4375 -14.03125C 3.4375 -15.28125 4.613281 -16.28125 5.96875 -17.03125C 7.332031 -17.78125 8.828125 -18.15625 10.453125 -18.15625C 12.628906 -18.15625 14.234375 -17.585938 15.265625 -16.453125C 16.304688 -15.316406 16.828125 -13.648438 16.828125 -11.453125L16.828125 -11.453125L16.828125 -4.546875C 16.828125 -3.253906 16.914062 -2.300781 17.09375 -1.6875C 17.28125 -1.082031 17.671875 -0.6875 18.265625 -0.5L18.265625 -0.5L18.265625 0L14.6875 0zM4.40625 -5.59375C 4.40625 -4.414062 4.753906 -3.5625 5.453125 -3.03125C 6.160156 -2.507812 6.921875 -2.25 7.734375 -2.25C 8.617188 -2.25 9.398438 -2.519531 10.078125 -3.0625C 10.765625 -3.601562 11.335938 -4.296875 11.796875 -5.140625C 12.265625 -5.984375 12.625 -6.867188 12.875 -7.796875C 13.125 -8.734375 13.25 -9.609375 13.25 -10.421875L13.25 -10.421875L13.25 -11.359375L9.421875 -10.25C 8.992188 -10.125 8.5 -9.945312 7.9375 -9.71875C 7.375 -9.5 6.820312 -9.207031 6.28125 -8.84375C 5.75 -8.488281 5.300781 -8.039062 4.9375 -7.5C 4.582031 -6.96875 4.40625 -6.332031 4.40625 -5.59375z" stroke="none"  fill="#FFFFFF" fill-rule="nonzero" />
							</g>
						</g>
					</g>
					<g>
						<g transform="matrix(1 0 0 1 190.95946 30.589334)">
							<g>
								<path  d="M7.921875 0.28125C 6.597656 0.28125 5.363281 0.113281 4.21875 -0.21875C 3.070312 -0.550781 2.15625 -0.941406 1.46875 -1.390625L1.46875 -1.390625L1.109375 -6.09375L1.46875 -6.15625C 2.226562 -4.4375 3.234375 -3.035156 4.484375 -1.953125C 5.742188 -0.867188 7.175781 -0.3125 8.78125 -0.28125C 9.894531 -0.257812 10.78125 -0.566406 11.4375 -1.203125C 12.09375 -1.835938 12.421875 -2.554688 12.421875 -3.359375C 12.421875 -4.503906 11.984375 -5.363281 11.109375 -5.9375C 10.242188 -6.507812 9.035156 -7.035156 7.484375 -7.515625C 6.242188 -7.898438 5.160156 -8.300781 4.234375 -8.71875C 3.316406 -9.132812 2.613281 -9.671875 2.125 -10.328125C 1.632812 -10.984375 1.390625 -11.847656 1.390625 -12.921875C 1.390625 -13.835938 1.632812 -14.691406 2.125 -15.484375C 2.613281 -16.285156 3.367188 -16.929688 4.390625 -17.421875C 5.421875 -17.910156 6.75 -18.15625 8.375 -18.15625C 9.40625 -18.15625 10.421875 -18.070312 11.421875 -17.90625C 12.421875 -17.738281 13.222656 -17.523438 13.828125 -17.265625L13.828125 -17.265625L14 -13.328125L13.578125 -13.25C 12.972656 -14.519531 12.140625 -15.570312 11.078125 -16.40625C 10.015625 -17.238281 8.828125 -17.65625 7.515625 -17.65625C 6.398438 -17.65625 5.5 -17.390625 4.8125 -16.859375C 4.132812 -16.335938 3.796875 -15.695312 3.796875 -14.9375C 3.796875 -13.9375 4.226562 -13.164062 5.09375 -12.625C 5.96875 -12.082031 7.207031 -11.539062 8.8125 -11C 9.769531 -10.6875 10.707031 -10.335938 11.625 -9.953125C 12.539062 -9.578125 13.300781 -9.046875 13.90625 -8.359375C 14.519531 -7.679688 14.828125 -6.734375 14.828125 -5.515625C 14.828125 -4.609375 14.609375 -3.707031 14.171875 -2.8125C 13.742188 -1.914062 13.03125 -1.175781 12.03125 -0.59375C 11.03125 -0.0078125 9.660156 0.28125 7.921875 0.28125z" stroke="none"  fill="#FFFFFF" fill-rule="nonzero" />
							</g>
						</g>
					</g>
					<g>
						<g transform="matrix(1 0 0 1 206.28693 30.589334)">
							<g>
								<path  d="M7.921875 0.28125C 6.597656 0.28125 5.363281 0.113281 4.21875 -0.21875C 3.070312 -0.550781 2.15625 -0.941406 1.46875 -1.390625L1.46875 -1.390625L1.109375 -6.09375L1.46875 -6.15625C 2.226562 -4.4375 3.234375 -3.035156 4.484375 -1.953125C 5.742188 -0.867188 7.175781 -0.3125 8.78125 -0.28125C 9.894531 -0.257812 10.78125 -0.566406 11.4375 -1.203125C 12.09375 -1.835938 12.421875 -2.554688 12.421875 -3.359375C 12.421875 -4.503906 11.984375 -5.363281 11.109375 -5.9375C 10.242188 -6.507812 9.035156 -7.035156 7.484375 -7.515625C 6.242188 -7.898438 5.160156 -8.300781 4.234375 -8.71875C 3.316406 -9.132812 2.613281 -9.671875 2.125 -10.328125C 1.632812 -10.984375 1.390625 -11.847656 1.390625 -12.921875C 1.390625 -13.835938 1.632812 -14.691406 2.125 -15.484375C 2.613281 -16.285156 3.367188 -16.929688 4.390625 -17.421875C 5.421875 -17.910156 6.75 -18.15625 8.375 -18.15625C 9.40625 -18.15625 10.421875 -18.070312 11.421875 -17.90625C 12.421875 -17.738281 13.222656 -17.523438 13.828125 -17.265625L13.828125 -17.265625L14 -13.328125L13.578125 -13.25C 12.972656 -14.519531 12.140625 -15.570312 11.078125 -16.40625C 10.015625 -17.238281 8.828125 -17.65625 7.515625 -17.65625C 6.398438 -17.65625 5.5 -17.390625 4.8125 -16.859375C 4.132812 -16.335938 3.796875 -15.695312 3.796875 -14.9375C 3.796875 -13.9375 4.226562 -13.164062 5.09375 -12.625C 5.96875 -12.082031 7.207031 -11.539062 8.8125 -11C 9.769531 -10.6875 10.707031 -10.335938 11.625 -9.953125C 12.539062 -9.578125 13.300781 -9.046875 13.90625 -8.359375C 14.519531 -7.679688 14.828125 -6.734375 14.828125 -5.515625C 14.828125 -4.609375 14.609375 -3.707031 14.171875 -2.8125C 13.742188 -1.914062 13.03125 -1.175781 12.03125 -0.59375C 11.03125 -0.0078125 9.660156 0.28125 7.921875 0.28125z" stroke="none"  fill="#FFFFFF" fill-rule="nonzero" />
							</g>
						</g>
					</g>
					<g>
						<g transform="matrix(1 0 0 1 221.61441 30.589334)">
							<g>
								<path  d="M14.6875 0C 13.726562 0 13.25 -0.476562 13.25 -1.4375L13.25 -1.4375L13.25 -7.34375C 12.914062 -5.957031 12.414062 -4.675781 11.75 -3.5C 11.082031 -2.332031 10.257812 -1.394531 9.28125 -0.6875C 8.300781 0.0078125 7.1875 0.359375 5.9375 0.359375C 4.625 0.359375 3.484375 -0.046875 2.515625 -0.859375C 1.554688 -1.671875 1.078125 -2.828125 1.078125 -4.328125C 1.078125 -5.578125 1.453125 -6.585938 2.203125 -7.359375C 2.953125 -8.128906 3.945312 -8.773438 5.1875 -9.296875C 6.4375 -9.828125 7.800781 -10.296875 9.28125 -10.703125L9.28125 -10.703125L13.25 -11.859375C 13.226562 -13.617188 12.78125 -14.875 11.90625 -15.625C 11.03125 -16.382812 9.925781 -16.765625 8.59375 -16.765625C 7.59375 -16.765625 6.601562 -16.53125 5.625 -16.0625C 4.644531 -15.59375 3.703125 -14.8125 2.796875 -13.71875L2.796875 -13.71875L2.4375 -14.03125C 3.4375 -15.28125 4.613281 -16.28125 5.96875 -17.03125C 7.332031 -17.78125 8.828125 -18.15625 10.453125 -18.15625C 12.628906 -18.15625 14.234375 -17.585938 15.265625 -16.453125C 16.304688 -15.316406 16.828125 -13.648438 16.828125 -11.453125L16.828125 -11.453125L16.828125 -4.546875C 16.828125 -3.253906 16.914062 -2.300781 17.09375 -1.6875C 17.28125 -1.082031 17.671875 -0.6875 18.265625 -0.5L18.265625 -0.5L18.265625 0L14.6875 0zM4.40625 -5.59375C 4.40625 -4.414062 4.753906 -3.5625 5.453125 -3.03125C 6.160156 -2.507812 6.921875 -2.25 7.734375 -2.25C 8.617188 -2.25 9.398438 -2.519531 10.078125 -3.0625C 10.765625 -3.601562 11.335938 -4.296875 11.796875 -5.140625C 12.265625 -5.984375 12.625 -6.867188 12.875 -7.796875C 13.125 -8.734375 13.25 -9.609375 13.25 -10.421875L13.25 -10.421875L13.25 -11.359375L9.421875 -10.25C 8.992188 -10.125 8.5 -9.945312 7.9375 -9.71875C 7.375 -9.5 6.820312 -9.207031 6.28125 -8.84375C 5.75 -8.488281 5.300781 -8.039062 4.9375 -7.5C 4.582031 -6.96875 4.40625 -6.332031 4.40625 -5.59375z" stroke="none"  fill="#FFFFFF" fill-rule="nonzero" />
							</g>
						</g>
					</g>
					<g>
						<g transform="matrix(1 0 0 1 239.87848 30.589334)">
							<g>
								<path  d="M6.234375 9.921875C 5.679688 9.921875 5.082031 9.847656 4.4375 9.703125C 3.789062 9.554688 3.175781 9.320312 2.59375 9C 2.007812 8.675781 1.523438 8.234375 1.140625 7.671875C 0.765625 7.117188 0.578125 6.425781 0.578125 5.59375C 0.578125 4.613281 0.960938 3.660156 1.734375 2.734375C 2.515625 1.816406 3.597656 0.941406 4.984375 0.109375C 4.242188 -0.109375 3.65625 -0.4375 3.21875 -0.875C 2.789062 -1.320312 2.578125 -1.914062 2.578125 -2.65625C 2.578125 -3.320312 2.816406 -3.914062 3.296875 -4.4375C 3.773438 -4.96875 4.488281 -5.519531 5.4375 -6.09375C 4.507812 -6.539062 3.722656 -7.179688 3.078125 -8.015625C 2.429688 -8.859375 2.109375 -9.957031 2.109375 -11.3125C 2.109375 -12.582031 2.445312 -13.726562 3.125 -14.75C 3.8125 -15.78125 4.707031 -16.601562 5.8125 -17.21875C 6.925781 -17.84375 8.128906 -18.15625 9.421875 -18.15625C 10.347656 -18.15625 11.21875 -18.046875 12.03125 -17.828125C 12.5625 -18.640625 13.195312 -19.285156 13.9375 -19.765625C 14.507812 -20.171875 15.109375 -20.488281 15.734375 -20.71875C 16.367188 -20.945312 17.054688 -21.0625 17.796875 -21.0625C 18.347656 -21.0625 18.832031 -20.984375 19.25 -20.828125C 19.664062 -20.671875 19.875 -20.425781 19.875 -20.09375C 19.875 -19.875 19.789062 -19.59375 19.625 -19.25C 19.457031 -18.90625 19.207031 -18.59375 18.875 -18.3125C 18.539062 -18.039062 18.125 -17.90625 17.625 -17.90625C 17.1875 -17.90625 16.671875 -17.988281 16.078125 -18.15625C 15.484375 -18.320312 14.671875 -18.570312 13.640625 -18.90625C 13.304688 -18.644531 12.945312 -18.226562 12.5625 -17.65625C 13.71875 -17.269531 14.6875 -16.628906 15.46875 -15.734375C 16.257812 -14.835938 16.65625 -13.613281 16.65625 -12.0625C 16.65625 -11.0625 16.421875 -10.144531 15.953125 -9.3125C 15.484375 -8.476562 14.878906 -7.757812 14.140625 -7.15625C 13.398438 -6.5625 12.613281 -6.097656 11.78125 -5.765625C 10.945312 -5.429688 10.160156 -5.265625 9.421875 -5.265625C 8.867188 -5.265625 8.285156 -5.3125 7.671875 -5.40625C 7.066406 -5.5 6.488281 -5.65625 5.9375 -5.875C 5.632812 -5.6875 5.382812 -5.488281 5.1875 -5.28125C 5 -5.082031 4.90625 -4.828125 4.90625 -4.515625C 4.90625 -4.296875 4.992188 -4.070312 5.171875 -3.84375C 5.347656 -3.625 5.707031 -3.4375 6.25 -3.28125C 6.789062 -3.125 7.609375 -3.007812 8.703125 -2.9375L8.703125 -2.9375L13.5 -2.65625C 15.34375 -2.550781 16.71875 -2.265625 17.625 -1.796875C 18.53125 -1.335938 18.984375 -0.476562 18.984375 0.78125C 18.984375 1.757812 18.628906 2.78125 17.921875 3.84375C 17.222656 4.90625 16.273438 5.894531 15.078125 6.8125C 13.878906 7.738281 12.515625 8.488281 10.984375 9.0625C 9.460938 9.632812 7.878906 9.921875 6.234375 9.921875zM3.515625 3.828125C 3.515625 4.785156 3.757812 5.550781 4.25 6.125C 4.738281 6.695312 5.378906 7.113281 6.171875 7.375C 6.972656 7.632812 7.84375 7.765625 8.78125 7.765625C 10.445312 7.765625 11.914062 7.519531 13.1875 7.03125C 14.46875 6.539062 15.46875 5.914062 16.1875 5.15625C 16.90625 4.394531 17.265625 3.59375 17.265625 2.75C 17.265625 2.175781 17.019531 1.722656 16.53125 1.390625C 16.039062 1.054688 15.09375 0.851562 13.6875 0.78125L13.6875 0.78125L7.921875 0.5C 7.484375 0.476562 7.066406 0.441406 6.671875 0.390625C 6.285156 0.347656 5.925781 0.300781 5.59375 0.25C 4.78125 0.820312 4.226562 1.410156 3.9375 2.015625C 3.65625 2.628906 3.515625 3.234375 3.515625 3.828125zM5.4375 -13.28125C 5.4375 -12.539062 5.523438 -11.75 5.703125 -10.90625C 5.890625 -10.0625 6.175781 -9.253906 6.5625 -8.484375C 6.957031 -7.722656 7.453125 -7.097656 8.046875 -6.609375C 8.648438 -6.117188 9.359375 -5.875 10.171875 -5.875C 10.984375 -5.875 11.617188 -6.070312 12.078125 -6.46875C 12.546875 -6.863281 12.875 -7.375 13.0625 -8C 13.257812 -8.632812 13.359375 -9.3125 13.359375 -10.03125C 13.359375 -10.8125 13.242188 -11.660156 13.015625 -12.578125C 12.785156 -13.503906 12.453125 -14.359375 12.015625 -15.140625C 11.578125 -15.929688 11.039062 -16.5625 10.40625 -17.03125C 9.769531 -17.5 9.046875 -17.695312 8.234375 -17.625C 7.160156 -17.5 6.425781 -17.007812 6.03125 -16.15625C 5.632812 -15.3125 5.4375 -14.351562 5.4375 -13.28125z" stroke="none"  fill="#FFFFFF" fill-rule="nonzero" />
							</g>
						</g>
					</g>
					<g>
						<g transform="matrix(1 0 0 1 258.2858 30.589334)">
							<g>
								<path  d="M9.59375 0.359375C 8.59375 0.359375 7.597656 0.179688 6.609375 -0.171875C 5.617188 -0.535156 4.703125 -1.070312 3.859375 -1.78125C 3.023438 -2.5 2.359375 -3.394531 1.859375 -4.46875C 1.359375 -5.550781 1.109375 -6.816406 1.109375 -8.265625C 1.109375 -9.796875 1.375 -11.171875 1.90625 -12.390625C 2.445312 -13.609375 3.171875 -14.644531 4.078125 -15.5C 4.984375 -16.363281 5.992188 -17.019531 7.109375 -17.46875C 8.222656 -17.925781 9.363281 -18.15625 10.53125 -18.15625C 12.15625 -18.15625 13.515625 -17.832031 14.609375 -17.1875C 15.710938 -16.539062 16.539062 -15.726562 17.09375 -14.75C 17.65625 -13.769531 17.9375 -12.753906 17.9375 -11.703125L17.9375 -11.703125L4.375 -11.703125C 4.34375 -11.515625 4.320312 -11.320312 4.3125 -11.125C 4.300781 -10.9375 4.296875 -10.75 4.296875 -10.5625C 4.296875 -9.007812 4.597656 -7.625 5.203125 -6.40625C 5.816406 -5.1875 6.675781 -4.238281 7.78125 -3.5625C 8.894531 -2.882812 10.203125 -2.546875 11.703125 -2.546875C 13.046875 -2.546875 14.226562 -2.804688 15.25 -3.328125C 16.28125 -3.859375 17.164062 -4.539062 17.90625 -5.375L17.90625 -5.375L18.234375 -5.015625C 17.679688 -4.179688 17 -3.351562 16.1875 -2.53125C 15.375 -1.707031 14.414062 -1.019531 13.3125 -0.46875C 12.21875 0.0820312 10.976562 0.359375 9.59375 0.359375zM4.40625 -12.21875L14.328125 -12.21875C 14.179688 -13.195312 13.875 -14.082031 13.40625 -14.875C 12.945312 -15.675781 12.375 -16.316406 11.6875 -16.796875C 11.007812 -17.273438 10.253906 -17.515625 9.421875 -17.515625C 8.421875 -17.535156 7.570312 -17.296875 6.875 -16.796875C 6.1875 -16.296875 5.640625 -15.640625 5.234375 -14.828125C 4.828125 -14.015625 4.550781 -13.144531 4.40625 -12.21875z" stroke="none"  fill="#FFFFFF" fill-rule="nonzero" />
							</g>
						</g>
					</g>
					<g>
						<g transform="matrix(1 0 0 1 276.6931 30.589334)">
							<g>
								<path  d="M1 0L1 -0.5C 1.59375 -0.6875 1.976562 -1.082031 2.15625 -1.6875C 2.34375 -2.300781 2.4375 -3.253906 2.4375 -4.546875L2.4375 -4.546875L2.4375 -12.78125C 2.4375 -13.832031 2.3125 -14.523438 2.0625 -14.859375C 1.8125 -15.191406 1.457031 -15.457031 1 -15.65625L1 -15.65625L1 -16.15625L5.734375 -18.234375L6.09375 -17.9375L6.09375 -14.9375C 7.070312 -15.75 8.191406 -16.488281 9.453125 -17.15625C 10.722656 -17.820312 12.050781 -18.15625 13.4375 -18.15625C 14.695312 -18.15625 15.734375 -17.894531 16.546875 -17.375C 17.359375 -16.863281 17.929688 -16.035156 18.265625 -14.890625C 19.242188 -15.703125 20.367188 -16.445312 21.640625 -17.125C 22.921875 -17.8125 24.265625 -18.15625 25.671875 -18.15625C 27.328125 -18.15625 28.597656 -17.695312 29.484375 -16.78125C 30.378906 -15.863281 30.828125 -14.351562 30.828125 -12.25L30.828125 -12.25L30.828125 -4.546875C 30.828125 -3.253906 30.914062 -2.300781 31.09375 -1.6875C 31.28125 -1.082031 31.671875 -0.6875 32.265625 -0.5L32.265625 -0.5L32.265625 0L25.75 0L25.75 -0.5C 26.34375 -0.6875 26.726562 -1.082031 26.90625 -1.6875C 27.09375 -2.300781 27.1875 -3.253906 27.1875 -4.546875L27.1875 -4.546875L27.1875 -11.609375C 27.1875 -13.222656 26.90625 -14.476562 26.34375 -15.375C 25.78125 -16.269531 24.832031 -16.71875 23.5 -16.71875C 22.65625 -16.71875 21.828125 -16.519531 21.015625 -16.125C 20.203125 -15.738281 19.320312 -15.160156 18.375 -14.390625C 18.519531 -13.753906 18.59375 -13.039062 18.59375 -12.25L18.59375 -12.25L18.59375 -4.546875C 18.59375 -3.253906 18.679688 -2.300781 18.859375 -1.6875C 19.035156 -1.082031 19.421875 -0.6875 20.015625 -0.5L20.015625 -0.5L20.015625 0L13.5 0L13.5 -0.5C 14.09375 -0.6875 14.476562 -1.082031 14.65625 -1.6875C 14.84375 -2.300781 14.9375 -3.253906 14.9375 -4.546875L14.9375 -4.546875L14.9375 -11.609375C 14.9375 -13.222656 14.65625 -14.476562 14.09375 -15.375C 13.53125 -16.269531 12.582031 -16.71875 11.25 -16.71875C 10.40625 -16.71875 9.578125 -16.515625 8.765625 -16.109375C 7.960938 -15.703125 7.070312 -15.109375 6.09375 -14.328125L6.09375 -14.328125L6.09375 -4.546875C 6.09375 -3.253906 6.179688 -2.300781 6.359375 -1.6875C 6.535156 -1.082031 6.921875 -0.6875 7.515625 -0.5L7.515625 -0.5L7.515625 0L1 0z" stroke="none"  fill="#FFFFFF" fill-rule="nonzero" />
							</g>
						</g>
					</g>
				</g>
			</g>
			<g clip-path="url(#2)" >
				<path  d="M105.33594 180.9414C 110.69141 177.47656 118.54297 173.8789 128.21875 170.75C 128.74219 171.83203 129.15625 172.67969 130.15625 173.69531C 119.80078 175.77734 112.38672 178.08203 105.33594 180.9414zM220.89062 164.51953C 242.57031 168.14062 260.10156 174.75 269.66797 180.9414C 256.98047 175.79688 238.86328 171.63281 216.79688 169.58984C 218.39844 167.96875 219.41016 166.63672 220.89062 164.51953z" stroke="none"  fill="#FFFFFF" fill-rule="nonzero" />
			</g>
			<path  d="M178.14062 156.91797C 188.71875 154.03125 195.51172 144.4414 197.57422 135.23438C 199.35547 127.28906 185.80469 124.21484 188.5039 135.6289C 189.38281 139.33594 188.47656 149.875 178.14062 156.91797z" stroke="none"  fill="#FFFFFF" fill-rule="nonzero" />
			<path  d="M168.80078 154.10156C 160.1875 147.32031 157.66797 135.83984 159.35547 126.55859C 160.8125 118.546875 174.49219 121 167.55469 130.45703C 165.30469 133.52734 162.02734 143.58984 168.80078 154.10156z" stroke="none"  fill="#FFFFFF" fill-rule="nonzero" />
			<g clip-path="url(#3)" >
				<path  d="M180.24219 130.0625C 184.04688 130.0625 187.1289 126.98047 187.1289 123.17969C 187.1289 119.375 184.04688 116.29297 180.24219 116.29297C 176.4414 116.29297 173.35938 119.375 173.35938 123.17969C 173.35938 126.98047 176.4414 130.0625 180.24219 130.0625z" stroke="none"  fill="#FFFFFF" fill-rule="nonzero" />
			</g>
			<path  d="M137.33984 174.05078C 140.90234 174.05078 143.78906 171.16406 143.78906 167.60156C 143.78906 164.04297 140.90234 161.15625 137.33984 161.15625C 133.78125 161.15625 130.89453 164.04297 130.89453 167.60156C 130.89453 171.16406 133.78125 174.05078 137.33984 174.05078zM226.09375 149.33984C 211.76953 184.92969 192.32422 176.22266 175.38281 168.6875C 152.48047 158.5 147.35156 167.84375 179 176.83594C 123.47266 173.10547 149.26953 146.78125 177.38281 160.52344C 192.03125 166.42188 208.54688 178.59766 226.09375 149.33984z" stroke="none"  fill="#FFFFFF" fill-rule="nonzero" />
			<g>
				<g transform="matrix(1 0 0 1 65.54176 244.57533)">
					<g>
						<path  d="M0.9375 0L0.9375 -7.828125L4.03125 -7.828125C 4.863281 -7.828125 5.585938 -7.660156 6.203125 -7.328125C 6.828125 -7.003906 7.3125 -6.546875 7.65625 -5.953125C 8 -5.367188 8.171875 -4.691406 8.171875 -3.921875C 8.171875 -3.128906 8 -2.441406 7.65625 -1.859375C 7.3125 -1.273438 6.828125 -0.816406 6.203125 -0.484375C 5.585938 -0.160156 4.863281 0 4.03125 0L4.03125 0L0.9375 0zM2.71875 -1.640625L4 -1.640625C 4.46875 -1.640625 4.875 -1.734375 5.21875 -1.921875C 5.570312 -2.109375 5.847656 -2.375 6.046875 -2.71875C 6.242188 -3.0625 6.34375 -3.460938 6.34375 -3.921875C 6.34375 -4.378906 6.242188 -4.773438 6.046875 -5.109375C 5.847656 -5.453125 5.570312 -5.71875 5.21875 -5.90625C 4.863281 -6.101562 4.453125 -6.203125 3.984375 -6.203125L3.984375 -6.203125L2.71875 -6.203125z" stroke="none"  fill="#FFFFFF" fill-rule="nonzero" />
					</g>
				</g>
			</g>
			<g>
				<g transform="matrix(1 0 0 1 77.24812 244.57533)">
					<g>
						<path  d="M0.9375 0L0.9375 -7.828125L6.09375 -7.828125L6.09375 -6.328125L2.703125 -6.328125L2.703125 -4.703125L5.78125 -4.703125L5.78125 -3.21875L2.703125 -3.21875L2.703125 -1.515625L6.203125 -1.515625L6.203125 0L0.9375 0z" stroke="none"  fill="#FFFFFF" fill-rule="nonzero" />
					</g>
				</g>
			</g>
			<g>
				<g transform="matrix(1 0 0 1 87.098656 244.57533)">
					<g>
						<path  d="M0.9375 0L0.9375 -7.828125L6.09375 -7.828125L6.09375 -6.328125L2.703125 -6.328125L2.703125 -4.703125L5.78125 -4.703125L5.78125 -3.21875L2.703125 -3.21875L2.703125 -1.515625L6.203125 -1.515625L6.203125 0L0.9375 0z" stroke="none"  fill="#FFFFFF" fill-rule="nonzero" />
					</g>
				</g>
			</g>
			<g>
				<g transform="matrix(1 0 0 1 96.949196 244.57533)">
					<g>
						<path  d="M0.9375 0L0.9375 -7.828125L4 -7.828125C 4.632812 -7.828125 5.179688 -7.710938 5.640625 -7.484375C 6.109375 -7.253906 6.46875 -6.925781 6.71875 -6.5C 6.976562 -6.070312 7.109375 -5.570312 7.109375 -5C 7.109375 -4.4375 6.976562 -3.941406 6.71875 -3.515625C 6.46875 -3.085938 6.109375 -2.757812 5.640625 -2.53125C 5.179688 -2.300781 4.632812 -2.1875 4 -2.1875L4 -2.1875L2.71875 -2.1875L2.71875 0L0.9375 0zM2.703125 -3.71875L3.859375 -3.71875C 4.316406 -3.71875 4.671875 -3.828125 4.921875 -4.046875C 5.171875 -4.265625 5.296875 -4.578125 5.296875 -4.984375C 5.296875 -5.398438 5.171875 -5.71875 4.921875 -5.9375C 4.671875 -6.164062 4.316406 -6.28125 3.859375 -6.28125L3.859375 -6.28125L2.703125 -6.28125z" stroke="none"  fill="#FFFFFF" fill-rule="nonzero" />
					</g>
				</g>
			</g>
			<g>
				<g transform="matrix(1 0 0 1 107.45932 244.57533)">
					<g>
					</g>
				</g>
			</g>
			<g>
				<g transform="matrix(1 0 0 1 113.16221 244.57533)">
					<g>
						<path  d="M2.8125 0L2.8125 -6.171875L0.328125 -6.171875L0.328125 -7.828125L7.078125 -7.828125L7.078125 -6.171875L4.59375 -6.171875L4.59375 0L2.8125 0z" stroke="none"  fill="#FFFFFF" fill-rule="nonzero" />
					</g>
				</g>
			</g>
			<g>
				<g transform="matrix(1 0 0 1 123.64998 244.57533)">
					<g>
						<path  d="M5.78125 0L5.78125 -3.15625L2.71875 -3.15625L2.71875 0L0.9375 0L0.9375 -7.828125L2.71875 -7.828125L2.71875 -4.828125L5.78125 -4.828125L5.78125 -7.828125L7.5625 -7.828125L7.5625 0L5.78125 0z" stroke="none"  fill="#FFFFFF" fill-rule="nonzero" />
					</g>
				</g>
			</g>
			<g>
				<g transform="matrix(1 0 0 1 135.22217 244.57533)">
					<g>
						<path  d="M0.9375 0L0.9375 -7.828125L6.09375 -7.828125L6.09375 -6.328125L2.703125 -6.328125L2.703125 -4.703125L5.78125 -4.703125L5.78125 -3.21875L2.703125 -3.21875L2.703125 -1.515625L6.203125 -1.515625L6.203125 0L0.9375 0z" stroke="none"  fill="#FFFFFF" fill-rule="nonzero" />
					</g>
				</g>
			</g>
			<g>
				<g transform="matrix(1 0 0 1 145.07271 244.57533)">
					<g>
						<path  d="M0.9375 0L0.9375 -7.828125L4.28125 -7.828125C 4.882812 -7.828125 5.40625 -7.71875 5.84375 -7.5C 6.28125 -7.289062 6.617188 -6.984375 6.859375 -6.578125C 7.097656 -6.171875 7.21875 -5.691406 7.21875 -5.140625C 7.21875 -4.566406 7.085938 -4.070312 6.828125 -3.65625C 6.566406 -3.238281 6.203125 -2.925781 5.734375 -2.71875L5.734375 -2.71875L7.34375 0L5.296875 0L3.890625 -2.4375L2.71875 -2.4375L2.71875 0L0.9375 0zM2.703125 -3.9375L4.046875 -3.9375C 4.484375 -3.9375 4.820312 -4.035156 5.0625 -4.234375C 5.300781 -4.441406 5.421875 -4.738281 5.421875 -5.125C 5.421875 -5.5 5.300781 -5.789062 5.0625 -6C 4.820312 -6.207031 4.484375 -6.3125 4.046875 -6.3125L4.046875 -6.3125L2.703125 -6.3125z" stroke="none"  fill="#FFFFFF" fill-rule="nonzero" />
					</g>
				</g>
			</g>
			<g>
				<g transform="matrix(1 0 0 1 156.01884 244.57533)">
					<g>
						<path  d="M0.09375 0L3.203125 -7.828125L4.953125 -7.828125L8.0625 0L6.171875 0L5.640625 -1.359375L2.53125 -1.359375L2 0L0.09375 0zM2.984375 -2.75L5.1875 -2.75L4.078125 -5.609375z" stroke="none"  fill="#FFFFFF" fill-rule="nonzero" />
					</g>
				</g>
			</g>
			<g>
				<g transform="matrix(1 0 0 1 167.25565 244.57533)">
					<g>
						<path  d="M0.9375 0L0.9375 -7.828125L4 -7.828125C 4.632812 -7.828125 5.179688 -7.710938 5.640625 -7.484375C 6.109375 -7.253906 6.46875 -6.925781 6.71875 -6.5C 6.976562 -6.070312 7.109375 -5.570312 7.109375 -5C 7.109375 -4.4375 6.976562 -3.941406 6.71875 -3.515625C 6.46875 -3.085938 6.109375 -2.757812 5.640625 -2.53125C 5.179688 -2.300781 4.632812 -2.1875 4 -2.1875L4 -2.1875L2.71875 -2.1875L2.71875 0L0.9375 0zM2.703125 -3.71875L3.859375 -3.71875C 4.316406 -3.71875 4.671875 -3.828125 4.921875 -4.046875C 5.171875 -4.265625 5.296875 -4.578125 5.296875 -4.984375C 5.296875 -5.398438 5.171875 -5.71875 4.921875 -5.9375C 4.671875 -6.164062 4.316406 -6.28125 3.859375 -6.28125L3.859375 -6.28125L2.703125 -6.28125z" stroke="none"  fill="#FFFFFF" fill-rule="nonzero" />
					</g>
				</g>
			</g>
			<g>
				<g transform="matrix(1 0 0 1 177.76578 244.57533)">
					<g>
						<path  d="M0.9375 0L0.9375 -7.828125L6.09375 -7.828125L6.09375 -6.328125L2.703125 -6.328125L2.703125 -4.703125L5.78125 -4.703125L5.78125 -3.21875L2.703125 -3.21875L2.703125 -1.515625L6.203125 -1.515625L6.203125 0L0.9375 0z" stroke="none"  fill="#FFFFFF" fill-rule="nonzero" />
					</g>
				</g>
			</g>
			<g>
				<g transform="matrix(1 0 0 1 187.6163 244.57533)">
					<g>
						<path  d="M4.140625 0.15625C 3.460938 0.15625 2.878906 0.0195312 2.390625 -0.25C 1.898438 -0.519531 1.519531 -0.90625 1.25 -1.40625C 0.988281 -1.914062 0.859375 -2.519531 0.859375 -3.21875L0.859375 -3.21875L0.859375 -7.828125L2.640625 -7.828125L2.640625 -3.34375C 2.640625 -2.132812 3.140625 -1.53125 4.140625 -1.53125C 5.140625 -1.53125 5.640625 -2.132812 5.640625 -3.34375L5.640625 -3.34375L5.640625 -7.828125L7.421875 -7.828125L7.421875 -3.21875C 7.421875 -2.519531 7.285156 -1.914062 7.015625 -1.40625C 6.753906 -0.90625 6.378906 -0.519531 5.890625 -0.25C 5.398438 0.0195312 4.816406 0.15625 4.140625 0.15625z" stroke="none"  fill="#FFFFFF" fill-rule="nonzero" />
					</g>
				</g>
			</g>
			<g>
				<g transform="matrix(1 0 0 1 198.9649 244.57533)">
					<g>
						<path  d="M2.8125 0L2.8125 -6.171875L0.328125 -6.171875L0.328125 -7.828125L7.078125 -7.828125L7.078125 -6.171875L4.59375 -6.171875L4.59375 0L2.8125 0z" stroke="none"  fill="#FFFFFF" fill-rule="nonzero" />
					</g>
				</g>
			</g>
			<g>
				<g transform="matrix(1 0 0 1 209.45268 244.57533)">
					<g>
						<path  d="M0.9375 0L0.9375 -7.828125L2.71875 -7.828125L2.71875 0L0.9375 0z" stroke="none"  fill="#FFFFFF" fill-rule="nonzero" />
					</g>
				</g>
			</g>
			<g>
				<g transform="matrix(1 0 0 1 216.1841 244.57533)">
					<g>
						<path  d="M4.53125 0.15625C 3.738281 0.15625 3.035156 -0.015625 2.421875 -0.359375C 1.816406 -0.710938 1.34375 -1.191406 1 -1.796875C 0.65625 -2.410156 0.484375 -3.117188 0.484375 -3.921875C 0.484375 -4.710938 0.65625 -5.414062 1 -6.03125C 1.34375 -6.644531 1.816406 -7.125 2.421875 -7.46875C 3.023438 -7.8125 3.722656 -7.984375 4.515625 -7.984375C 5.179688 -7.984375 5.789062 -7.859375 6.34375 -7.609375C 6.894531 -7.359375 7.359375 -7 7.734375 -6.53125C 8.109375 -6.070312 8.375 -5.53125 8.53125 -4.90625L8.53125 -4.90625L6.6875 -4.90625C 6.539062 -5.332031 6.273438 -5.671875 5.890625 -5.921875C 5.515625 -6.171875 5.078125 -6.296875 4.578125 -6.296875C 4.140625 -6.296875 3.742188 -6.191406 3.390625 -5.984375C 3.046875 -5.785156 2.773438 -5.507812 2.578125 -5.15625C 2.390625 -4.800781 2.296875 -4.390625 2.296875 -3.921875C 2.296875 -3.441406 2.390625 -3.023438 2.578125 -2.671875C 2.773438 -2.316406 3.046875 -2.035156 3.390625 -1.828125C 3.734375 -1.628906 4.125 -1.53125 4.5625 -1.53125C 5.082031 -1.53125 5.535156 -1.660156 5.921875 -1.921875C 6.304688 -2.191406 6.582031 -2.550781 6.75 -3L6.75 -3L8.578125 -3C 8.453125 -2.363281 8.195312 -1.804688 7.8125 -1.328125C 7.4375 -0.859375 6.96875 -0.492188 6.40625 -0.234375C 5.84375 0.0234375 5.21875 0.15625 4.53125 0.15625z" stroke="none"  fill="#FFFFFF" fill-rule="nonzero" />
					</g>
				</g>
			</g>
			<g>
				<g transform="matrix(1 0 0 1 228.28174 244.57533)">
					<g>
					</g>
				</g>
			</g>
			<g>
				<g transform="matrix(1 0 0 1 233.98462 244.57533)">
					<g>
						<path  d="M0.9375 0L0.9375 -7.828125L2.453125 -7.828125L5.234375 -3.765625L8.015625 -7.828125L9.515625 -7.828125L9.515625 0L7.734375 0L7.734375 -4.703125L5.84375 -1.9375L4.609375 -1.9375L2.703125 -4.71875L2.703125 0L0.9375 0z" stroke="none"  fill="#FFFFFF" fill-rule="nonzero" />
					</g>
				</g>
			</g>
			<g>
				<g transform="matrix(1 0 0 1 247.50208 244.57533)">
					<g>
						<path  d="M0.09375 0L3.203125 -7.828125L4.953125 -7.828125L8.0625 0L6.171875 0L5.640625 -1.359375L2.53125 -1.359375L2 0L0.09375 0zM2.984375 -2.75L5.1875 -2.75L4.078125 -5.609375z" stroke="none"  fill="#FFFFFF" fill-rule="nonzero" />
					</g>
				</g>
			</g>
			<g>
				<g transform="matrix(1 0 0 1 258.73886 244.57533)">
					<g>
						<path  d="M3.671875 0.15625C 3.015625 0.15625 2.445312 0.046875 1.96875 -0.171875C 1.5 -0.390625 1.132812 -0.695312 0.875 -1.09375C 0.625 -1.488281 0.5 -1.957031 0.5 -2.5L0.5 -2.5L2.234375 -2.5C 2.234375 -2.125 2.363281 -1.832031 2.625 -1.625C 2.882812 -1.414062 3.226562 -1.3125 3.65625 -1.3125C 4.03125 -1.3125 4.320312 -1.382812 4.53125 -1.53125C 4.75 -1.675781 4.859375 -1.878906 4.859375 -2.140625C 4.859375 -2.410156 4.726562 -2.628906 4.46875 -2.796875C 4.207031 -2.972656 3.800781 -3.125 3.25 -3.25C 2.332031 -3.4375 1.65625 -3.726562 1.21875 -4.125C 0.78125 -4.519531 0.5625 -5.035156 0.5625 -5.671875C 0.5625 -6.390625 0.820312 -6.953125 1.34375 -7.359375C 1.863281 -7.773438 2.578125 -7.984375 3.484375 -7.984375C 4.097656 -7.984375 4.628906 -7.875 5.078125 -7.65625C 5.535156 -7.445312 5.890625 -7.148438 6.140625 -6.765625C 6.390625 -6.390625 6.515625 -5.9375 6.515625 -5.40625L6.515625 -5.40625L4.8125 -5.40625C 4.8125 -5.75 4.691406 -6.019531 4.453125 -6.21875C 4.222656 -6.425781 3.90625 -6.53125 3.5 -6.53125C 3.125 -6.53125 2.828125 -6.457031 2.609375 -6.3125C 2.398438 -6.164062 2.296875 -5.960938 2.296875 -5.703125C 2.296875 -5.460938 2.414062 -5.257812 2.65625 -5.09375C 2.894531 -4.9375 3.3125 -4.785156 3.90625 -4.640625C 4.882812 -4.410156 5.585938 -4.097656 6.015625 -3.703125C 6.453125 -3.316406 6.671875 -2.816406 6.671875 -2.203125C 6.671875 -1.460938 6.398438 -0.882812 5.859375 -0.46875C 5.328125 -0.0507812 4.597656 0.15625 3.671875 0.15625z" stroke="none"  fill="#FFFFFF" fill-rule="nonzero" />
					</g>
				</g>
			</g>
			<g>
				<g transform="matrix(1 0 0 1 268.98068 244.57533)">
					<g>
						<path  d="M3.671875 0.15625C 3.015625 0.15625 2.445312 0.046875 1.96875 -0.171875C 1.5 -0.390625 1.132812 -0.695312 0.875 -1.09375C 0.625 -1.488281 0.5 -1.957031 0.5 -2.5L0.5 -2.5L2.234375 -2.5C 2.234375 -2.125 2.363281 -1.832031 2.625 -1.625C 2.882812 -1.414062 3.226562 -1.3125 3.65625 -1.3125C 4.03125 -1.3125 4.320312 -1.382812 4.53125 -1.53125C 4.75 -1.675781 4.859375 -1.878906 4.859375 -2.140625C 4.859375 -2.410156 4.726562 -2.628906 4.46875 -2.796875C 4.207031 -2.972656 3.800781 -3.125 3.25 -3.25C 2.332031 -3.4375 1.65625 -3.726562 1.21875 -4.125C 0.78125 -4.519531 0.5625 -5.035156 0.5625 -5.671875C 0.5625 -6.390625 0.820312 -6.953125 1.34375 -7.359375C 1.863281 -7.773438 2.578125 -7.984375 3.484375 -7.984375C 4.097656 -7.984375 4.628906 -7.875 5.078125 -7.65625C 5.535156 -7.445312 5.890625 -7.148438 6.140625 -6.765625C 6.390625 -6.390625 6.515625 -5.9375 6.515625 -5.40625L6.515625 -5.40625L4.8125 -5.40625C 4.8125 -5.75 4.691406 -6.019531 4.453125 -6.21875C 4.222656 -6.425781 3.90625 -6.53125 3.5 -6.53125C 3.125 -6.53125 2.828125 -6.457031 2.609375 -6.3125C 2.398438 -6.164062 2.296875 -5.960938 2.296875 -5.703125C 2.296875 -5.460938 2.414062 -5.257812 2.65625 -5.09375C 2.894531 -4.9375 3.3125 -4.785156 3.90625 -4.640625C 4.882812 -4.410156 5.585938 -4.097656 6.015625 -3.703125C 6.453125 -3.316406 6.671875 -2.816406 6.671875 -2.203125C 6.671875 -1.460938 6.398438 -0.882812 5.859375 -0.46875C 5.328125 -0.0507812 4.597656 0.15625 3.671875 0.15625z" stroke="none"  fill="#FFFFFF" fill-rule="nonzero" />
					</g>
				</g>
			</g>
			<g>
				<g transform="matrix(1 0 0 1 279.2225 244.57533)">
					<g>
						<path  d="M0.09375 0L3.203125 -7.828125L4.953125 -7.828125L8.0625 0L6.171875 0L5.640625 -1.359375L2.53125 -1.359375L2 0L0.09375 0zM2.984375 -2.75L5.1875 -2.75L4.078125 -5.609375z" stroke="none"  fill="#FFFFFF" fill-rule="nonzero" />
					</g>
				</g>
			</g>
			<g>
				<g transform="matrix(1 0 0 1 290.45932 244.57533)">
					<g>
						<path  d="M4.59375 0.15625C 3.789062 0.15625 3.078125 -0.015625 2.453125 -0.359375C 1.835938 -0.710938 1.351562 -1.191406 1 -1.796875C 0.65625 -2.410156 0.484375 -3.117188 0.484375 -3.921875C 0.484375 -4.710938 0.65625 -5.414062 1 -6.03125C 1.34375 -6.644531 1.820312 -7.125 2.4375 -7.46875C 3.0625 -7.8125 3.765625 -7.984375 4.546875 -7.984375C 5.179688 -7.984375 5.765625 -7.867188 6.296875 -7.640625C 6.835938 -7.421875 7.296875 -7.109375 7.671875 -6.703125C 8.054688 -6.296875 8.328125 -5.816406 8.484375 -5.265625L8.484375 -5.265625L6.5625 -5.265625C 6.375 -5.609375 6.109375 -5.875 5.765625 -6.0625C 5.421875 -6.257812 5.03125 -6.359375 4.59375 -6.359375C 4.132812 -6.359375 3.726562 -6.253906 3.375 -6.046875C 3.03125 -5.835938 2.757812 -5.546875 2.5625 -5.171875C 2.363281 -4.804688 2.265625 -4.390625 2.265625 -3.921875C 2.265625 -3.441406 2.359375 -3.019531 2.546875 -2.65625C 2.742188 -2.289062 3.015625 -2.003906 3.359375 -1.796875C 3.710938 -1.585938 4.128906 -1.484375 4.609375 -1.484375C 5.179688 -1.484375 5.65625 -1.625 6.03125 -1.90625C 6.414062 -2.195312 6.664062 -2.582031 6.78125 -3.0625L6.78125 -3.0625L4.234375 -3.0625L4.234375 -4.4375L8.65625 -4.4375C 8.695312 -3.769531 8.628906 -3.15625 8.453125 -2.59375C 8.285156 -2.03125 8.019531 -1.539062 7.65625 -1.125C 7.289062 -0.71875 6.847656 -0.398438 6.328125 -0.171875C 5.816406 0.046875 5.238281 0.15625 4.59375 0.15625z" stroke="none"  fill="#FFFFFF" fill-rule="nonzero" />
					</g>
				</g>
			</g>
			<g>
				<g transform="matrix(1 0 0 1 302.65756 244.57533)">
					<g>
						<path  d="M0.9375 0L0.9375 -7.828125L6.09375 -7.828125L6.09375 -6.328125L2.703125 -6.328125L2.703125 -4.703125L5.78125 -4.703125L5.78125 -3.21875L2.703125 -3.21875L2.703125 -1.515625L6.203125 -1.515625L6.203125 0L0.9375 0z" stroke="none"  fill="#FFFFFF" fill-rule="nonzero" />
					</g>
				</g>
			</g>
		</g>
	</g>
</g>
</svg>
